{
    "asset" : {
        "generator" : "Khronos glTF Blender I/O v1.6.16",
        "version" : "2.0"
    },
    "scene" : 0,
    "scenes" : [
        {
            "name" : "Scene",
            "nodes" : [
                0
            ]
        }
    ],
    "nodes" : [
        {
            "mesh" : 0,
            "name" : "Blue Sprinkle",
            "rotation" : [
                0,
                -0.2588190734386444,
                0,
                0.965925931930542
            ],
            "scale" : [
                0.800000011920929,
                0.800000011920929,
                0.800000011920929
            ],
            "translation" : [
                -0.5187717080116272,
                0.9166527390480042,
                0.024576351046562195
            ]
        }
    ],
    "materials" : [
        {
            "doubleSided" : true,
            "name" : "Material.004",
            "pbrMetallicRoughness" : {
                "baseColorTexture" : {
                    "index" : 0
                },
                "metallicFactor" : 0,
                "roughnessFactor" : 0.5
            }
        },
        {
            "doubleSided" : true,
            "name" : "Material.001",
            "pbrMetallicRoughness" : {
                "baseColorTexture" : {
                    "index" : 1
                },
                "metallicFactor" : 0,
                "roughnessFactor" : 0.5
            }
        }
    ],
    "meshes" : [
        {
            "name" : "Cube.027",
            "primitives" : [
                {
                    "attributes" : {
                        "POSITION" : 0,
                        "NORMAL" : 1,
                        "TEXCOORD_0" : 2
                    },
                    "indices" : 3,
                    "material" : 0
                },
                {
                    "attributes" : {
                        "POSITION" : 4,
                        "NORMAL" : 5,
                        "TEXCOORD_0" : 6
                    },
                    "indices" : 7,
                    "material" : 1
                }
            ]
        }
    ],
    "textures" : [
        {
            "sampler" : 0,
            "source" : 0
        },
        {
            "sampler" : 1,
            "source" : 0
        }
    ],
    "images" : [
        {
            "mimeType" : "image/png",
            "name" : "cakePlain",
            "uri" : "cakePlain.png"
        }
    ],
    "accessors" : [
        {
            "bufferView" : 0,
            "componentType" : 5126,
            "count" : 200,
            "max" : [
                1.5709353685379028,
                0.5424214601516724,
                0.6571600437164307
            ],
            "min" : [
                -0.4772786498069763,
                -0.5305028557777405,
                -1.2482109069824219
            ],
            "type" : "VEC3"
        },
        {
            "bufferView" : 1,
            "componentType" : 5126,
            "count" : 200,
            "type" : "VEC3"
        },
        {
            "bufferView" : 2,
            "componentType" : 5126,
            "count" : 200,
            "type" : "VEC2"
        },
        {
            "bufferView" : 3,
            "componentType" : 5123,
            "count" : 480,
            "type" : "SCALAR"
        },
        {
            "bufferView" : 4,
            "componentType" : 5126,
            "count" : 782,
            "max" : [
                1.676243543624878,
                0.6942886114120483,
                0.7791801691055298
            ],
            "min" : [
                -0.5837904810905457,
                -1.1458158493041992,
                -1.4808541536331177
            ],
            "type" : "VEC3"
        },
        {
            "bufferView" : 5,
            "componentType" : 5126,
            "count" : 782,
            "type" : "VEC3"
        },
        {
            "bufferView" : 6,
            "componentType" : 5126,
            "count" : 782,
            "type" : "VEC2"
        },
        {
            "bufferView" : 7,
            "componentType" : 5123,
            "count" : 2736,
            "type" : "SCALAR"
        }
    ],
    "bufferViews" : [
        {
            "buffer" : 0,
            "byteLength" : 2400,
            "byteOffset" : 0
        },
        {
            "buffer" : 0,
            "byteLength" : 2400,
            "byteOffset" : 2400
        },
        {
            "buffer" : 0,
            "byteLength" : 1600,
            "byteOffset" : 4800
        },
        {
            "buffer" : 0,
            "byteLength" : 960,
            "byteOffset" : 6400
        },
        {
            "buffer" : 0,
            "byteLength" : 9384,
            "byteOffset" : 7360
        },
        {
            "buffer" : 0,
            "byteLength" : 9384,
            "byteOffset" : 16744
        },
        {
            "buffer" : 0,
            "byteLength" : 6256,
            "byteOffset" : 26128
        },
        {
            "buffer" : 0,
            "byteLength" : 5472,
            "byteOffset" : 32384
        }
    ],
    "samplers" : [
        {
            "magFilter" : 9728,
            "minFilter" : 9984
        },
        {
            "magFilter" : 9729,
            "minFilter" : 9987
        }
    ],
    "buffers" : [
        {
            "byteLength" : 37856,
            "uri" : "cakeSprinkle.bin"
        }
    ]
}
