{
    "asset" : {
        "generator" : "Khronos glTF Blender I/O v1.6.16",
        "version" : "2.0"
    },
    "scene" : 0,
    "scenes" : [
        {
            "name" : "Scene",
            "nodes" : [
                0
            ]
        }
    ],
    "nodes" : [
        {
            "mesh" : 0,
            "name" : "Strawberry.006"
        }
    ],
    "materials" : [
        {
            "doubleSided" : true,
            "name" : "Material.005",
            "pbrMetallicRoughness" : {
                "baseColorTexture" : {
                    "index" : 0
                },
                "metallicFactor" : 0,
                "roughnessFactor" : 0.5
            }
        },
        {
            "doubleSided" : true,
            "name" : "Material.001",
            "pbrMetallicRoughness" : {
                "baseColorTexture" : {
                    "index" : 1
                },
                "metallicFactor" : 0,
                "roughnessFactor" : 0.5
            }
        }
    ],
    "meshes" : [
        {
            "name" : "Cube.007",
            "primitives" : [
                {
                    "attributes" : {
                        "POSITION" : 0,
                        "NORMAL" : 1,
                        "TEXCOORD_0" : 2
                    },
                    "indices" : 3,
                    "material" : 0
                },
                {
                    "attributes" : {
                        "POSITION" : 4,
                        "NORMAL" : 5,
                        "TEXCOORD_0" : 6
                    },
                    "indices" : 7,
                    "material" : 1
                }
            ]
        }
    ],
    "textures" : [
        {
            "sampler" : 0,
            "source" : 0
        },
        {
            "sampler" : 1,
            "source" : 0
        }
    ],
    "images" : [
        {
            "mimeType" : "image/png",
            "name" : "cakePlain",
            "uri" : "cakePlain.png"
        }
    ],
    "accessors" : [
        {
            "bufferView" : 0,
            "componentType" : 5126,
            "count" : 484,
            "max" : [
                0.9160093069076538,
                0.9460970759391785,
                0.980190098285675
            ],
            "min" : [
                -0.9145766496658325,
                0.4969361424446106,
                -0.9817435145378113
            ],
            "type" : "VEC3"
        },
        {
            "bufferView" : 1,
            "componentType" : 5126,
            "count" : 484,
            "type" : "VEC3"
        },
        {
            "bufferView" : 2,
            "componentType" : 5126,
            "count" : 484,
            "type" : "VEC2"
        },
        {
            "bufferView" : 3,
            "componentType" : 5123,
            "count" : 1008,
            "type" : "SCALAR"
        },
        {
            "bufferView" : 4,
            "componentType" : 5126,
            "count" : 782,
            "max" : [
                0.9118145704269409,
                1.4720838069915771,
                0.9118146300315857
            ],
            "min" : [
                -0.9118144512176514,
                0,
                -0.9118145704269409
            ],
            "type" : "VEC3"
        },
        {
            "bufferView" : 5,
            "componentType" : 5126,
            "count" : 782,
            "type" : "VEC3"
        },
        {
            "bufferView" : 6,
            "componentType" : 5126,
            "count" : 782,
            "type" : "VEC2"
        },
        {
            "bufferView" : 7,
            "componentType" : 5123,
            "count" : 2736,
            "type" : "SCALAR"
        }
    ],
    "bufferViews" : [
        {
            "buffer" : 0,
            "byteLength" : 5808,
            "byteOffset" : 0
        },
        {
            "buffer" : 0,
            "byteLength" : 5808,
            "byteOffset" : 5808
        },
        {
            "buffer" : 0,
            "byteLength" : 3872,
            "byteOffset" : 11616
        },
        {
            "buffer" : 0,
            "byteLength" : 2016,
            "byteOffset" : 15488
        },
        {
            "buffer" : 0,
            "byteLength" : 9384,
            "byteOffset" : 17504
        },
        {
            "buffer" : 0,
            "byteLength" : 9384,
            "byteOffset" : 26888
        },
        {
            "buffer" : 0,
            "byteLength" : 6256,
            "byteOffset" : 36272
        },
        {
            "buffer" : 0,
            "byteLength" : 5472,
            "byteOffset" : 42528
        }
    ],
    "samplers" : [
        {
            "magFilter" : 9728,
            "minFilter" : 9984
        },
        {
            "magFilter" : 9729,
            "minFilter" : 9987
        }
    ],
    "buffers" : [
        {
            "byteLength" : 48000,
            "uri" : "cakeStrawberry.bin"
        }
    ]
}
