{
    "asset" : {
        "generator" : "Khronos glTF Blender I/O v1.6.16",
        "version" : "2.0"
    },
    "scene" : 0,
    "scenes" : [
        {
            "name" : "Scene",
            "nodes" : [
                0
            ]
        }
    ],
    "nodes" : [
        {
            "mesh" : 0,
            "name" : "Strawberry.001"
        }
    ],
    "materials" : [
        {
            "doubleSided" : true,
            "name" : "Material.006",
            "pbrMetallicRoughness" : {
                "baseColorTexture" : {
                    "index" : 0
                },
                "metallicFactor" : 0,
                "roughnessFactor" : 0.5
            }
        },
        {
            "doubleSided" : true,
            "name" : "Material.001",
            "pbrMetallicRoughness" : {
                "baseColorTexture" : {
                    "index" : 1
                },
                "metallicFactor" : 0,
                "roughnessFactor" : 0.5
            }
        }
    ],
    "meshes" : [
        {
            "name" : "Cube.023",
            "primitives" : [
                {
                    "attributes" : {
                        "POSITION" : 0,
                        "NORMAL" : 1,
                        "TEXCOORD_0" : 2
                    },
                    "indices" : 3,
                    "material" : 0
                },
                {
                    "attributes" : {
                        "POSITION" : 4,
                        "NORMAL" : 5,
                        "TEXCOORD_0" : 6
                    },
                    "indices" : 7,
                    "material" : 1
                }
            ]
        }
    ],
    "textures" : [
        {
            "sampler" : 0,
            "source" : 0
        },
        {
            "sampler" : 1,
            "source" : 0
        }
    ],
    "images" : [
        {
            "mimeType" : "image/png",
            "name" : "cookieStrawberry",
            "uri" : "cookieStrawberry.png"
        }
    ],
    "accessors" : [
        {
            "bufferView" : 0,
            "componentType" : 5126,
            "count" : 252,
            "max" : [
                0.6738162040710449,
                0.3366599678993225,
                0.6406199932098389
            ],
            "min" : [
                -0.5883644819259644,
                0.181253582239151,
                -0.6240128874778748
            ],
            "type" : "VEC3"
        },
        {
            "bufferView" : 1,
            "componentType" : 5126,
            "count" : 252,
            "type" : "VEC3"
        },
        {
            "bufferView" : 2,
            "componentType" : 5126,
            "count" : 252,
            "type" : "VEC2"
        },
        {
            "bufferView" : 3,
            "componentType" : 5123,
            "count" : 504,
            "type" : "SCALAR"
        },
        {
            "bufferView" : 4,
            "componentType" : 5126,
            "count" : 126,
            "max" : [
                0.7021517157554626,
                0.3013399839401245,
                0.7050946950912476
            ],
            "min" : [
                -0.713014543056488,
                -8.940696716308594e-08,
                -0.7100703120231628
            ],
            "type" : "VEC3"
        },
        {
            "bufferView" : 5,
            "componentType" : 5126,
            "count" : 126,
            "type" : "VEC3"
        },
        {
            "bufferView" : 6,
            "componentType" : 5126,
            "count" : 126,
            "type" : "VEC2"
        },
        {
            "bufferView" : 7,
            "componentType" : 5123,
            "count" : 480,
            "type" : "SCALAR"
        }
    ],
    "bufferViews" : [
        {
            "buffer" : 0,
            "byteLength" : 3024,
            "byteOffset" : 0
        },
        {
            "buffer" : 0,
            "byteLength" : 3024,
            "byteOffset" : 3024
        },
        {
            "buffer" : 0,
            "byteLength" : 2016,
            "byteOffset" : 6048
        },
        {
            "buffer" : 0,
            "byteLength" : 1008,
            "byteOffset" : 8064
        },
        {
            "buffer" : 0,
            "byteLength" : 1512,
            "byteOffset" : 9072
        },
        {
            "buffer" : 0,
            "byteLength" : 1512,
            "byteOffset" : 10584
        },
        {
            "buffer" : 0,
            "byteLength" : 1008,
            "byteOffset" : 12096
        },
        {
            "buffer" : 0,
            "byteLength" : 960,
            "byteOffset" : 13104
        }
    ],
    "samplers" : [
        {
            "magFilter" : 9728,
            "minFilter" : 9984
        },
        {
            "magFilter" : 9729,
            "minFilter" : 9987
        }
    ],
    "buffers" : [
        {
            "byteLength" : 14064,
            "uri" : "cookieStrawberry.bin"
        }
    ]
}
