{
    "asset" : {
        "generator" : "Khronos glTF Blender I/O v1.6.16",
        "version" : "2.0"
    },
    "scene" : 0,
    "scenes" : [
        {
            "name" : "Scene",
            "nodes" : [
                0
            ]
        }
    ],
    "nodes" : [
        {
            "mesh" : 0,
            "name" : "Strawberry.001"
        }
    ],
    "materials" : [
        {
            "doubleSided" : true,
            "name" : "Material.001",
            "pbrMetallicRoughness" : {
                "baseColorTexture" : {
                    "index" : 0
                },
                "metallicFactor" : 0,
                "roughnessFactor" : 0.5
            }
        },
        {
            "doubleSided" : true,
            "name" : "Material",
            "pbrMetallicRoughness" : {
                "baseColorTexture" : {
                    "index" : 1
                },
                "metallicFactor" : 0,
                "roughnessFactor" : 0.5
            }
        },
        {
            "doubleSided" : true,
            "name" : "Material.002",
            "pbrMetallicRoughness" : {
                "baseColorTexture" : {
                    "index" : 2
                },
                "metallicFactor" : 0,
                "roughnessFactor" : 0.5
            }
        },
        {
            "doubleSided" : true,
            "name" : "Material.003",
            "pbrMetallicRoughness" : {
                "baseColorTexture" : {
                    "index" : 3
                },
                "metallicFactor" : 0,
                "roughnessFactor" : 0.5
            }
        },
        {
            "doubleSided" : true,
            "name" : "Material.004",
            "pbrMetallicRoughness" : {
                "baseColorTexture" : {
                    "index" : 4
                },
                "metallicFactor" : 0,
                "roughnessFactor" : 0.5
            }
        }
    ],
    "meshes" : [
        {
            "name" : "Cube.005",
            "primitives" : [
                {
                    "attributes" : {
                        "POSITION" : 0,
                        "NORMAL" : 1,
                        "TEXCOORD_0" : 2
                    },
                    "indices" : 3,
                    "material" : 0
                },
                {
                    "attributes" : {
                        "POSITION" : 4,
                        "NORMAL" : 5,
                        "TEXCOORD_0" : 6
                    },
                    "indices" : 7,
                    "material" : 1
                },
                {
                    "attributes" : {
                        "POSITION" : 8,
                        "NORMAL" : 9,
                        "TEXCOORD_0" : 10
                    },
                    "indices" : 11,
                    "material" : 2
                },
                {
                    "attributes" : {
                        "POSITION" : 12,
                        "NORMAL" : 13,
                        "TEXCOORD_0" : 14
                    },
                    "indices" : 15,
                    "material" : 3
                },
                {
                    "attributes" : {
                        "POSITION" : 16,
                        "NORMAL" : 17,
                        "TEXCOORD_0" : 18
                    },
                    "indices" : 19,
                    "material" : 4
                }
            ]
        }
    ],
    "textures" : [
        {
            "sampler" : 0,
            "source" : 0
        },
        {
            "sampler" : 0,
            "source" : 0
        },
        {
            "sampler" : 0,
            "source" : 0
        },
        {
            "sampler" : 0,
            "source" : 0
        },
        {
            "sampler" : 0,
            "source" : 0
        }
    ],
    "images" : [
        {
            "mimeType" : "image/png",
            "name" : "croissant",
            "uri" : "croissant.png"
        }
    ],
    "accessors" : [
        {
            "bufferView" : 0,
            "componentType" : 5126,
            "count" : 42,
            "max" : [
                -0.0891704261302948,
                0.5810643434524536,
                0.3098897635936737
            ],
            "min" : [
                -0.3934556245803833,
                0.3150036633014679,
                -0.03109845519065857
            ],
            "type" : "VEC3"
        },
        {
            "bufferView" : 1,
            "componentType" : 5126,
            "count" : 42,
            "type" : "VEC3"
        },
        {
            "bufferView" : 2,
            "componentType" : 5126,
            "count" : 42,
            "type" : "VEC2"
        },
        {
            "bufferView" : 3,
            "componentType" : 5123,
            "count" : 84,
            "type" : "SCALAR"
        },
        {
            "bufferView" : 4,
            "componentType" : 5126,
            "count" : 441,
            "max" : [
                0.674777626991272,
                0.5607426762580872,
                0.7900811433792114
            ],
            "min" : [
                -0.7138503789901733,
                3.725290298461914e-09,
                -0.7900215983390808
            ],
            "type" : "VEC3"
        },
        {
            "bufferView" : 5,
            "componentType" : 5126,
            "count" : 441,
            "type" : "VEC3"
        },
        {
            "bufferView" : 6,
            "componentType" : 5126,
            "count" : 441,
            "type" : "VEC2"
        },
        {
            "bufferView" : 7,
            "componentType" : 5123,
            "count" : 1908,
            "type" : "SCALAR"
        },
        {
            "bufferView" : 8,
            "componentType" : 5126,
            "count" : 84,
            "max" : [
                0.31479209661483765,
                0.5591614246368408,
                -0.2216823399066925
            ],
            "min" : [
                -0.547543466091156,
                0.2645898461341858,
                -0.627345085144043
            ],
            "type" : "VEC3"
        },
        {
            "bufferView" : 9,
            "componentType" : 5126,
            "count" : 84,
            "type" : "VEC3"
        },
        {
            "bufferView" : 10,
            "componentType" : 5126,
            "count" : 84,
            "type" : "VEC2"
        },
        {
            "bufferView" : 11,
            "componentType" : 5123,
            "count" : 168,
            "type" : "SCALAR"
        },
        {
            "bufferView" : 12,
            "componentType" : 5126,
            "count" : 84,
            "max" : [
                0.5756802558898926,
                0.5827895402908325,
                0.6969037055969238
            ],
            "min" : [
                -0.5196568965911865,
                0.24846312403678894,
                -0.2197723537683487
            ],
            "type" : "VEC3"
        },
        {
            "bufferView" : 13,
            "componentType" : 5126,
            "count" : 84,
            "type" : "VEC3"
        },
        {
            "bufferView" : 14,
            "componentType" : 5126,
            "count" : 84,
            "type" : "VEC2"
        },
        {
            "bufferView" : 15,
            "componentType" : 5123,
            "count" : 168,
            "type" : "SCALAR"
        },
        {
            "bufferView" : 16,
            "componentType" : 5126,
            "count" : 42,
            "max" : [
                0.40315642952919006,
                0.5411843657493591,
                0.6986715793609619
            ],
            "min" : [
                0.04488730430603027,
                0.316635400056839,
                0.32420819997787476
            ],
            "type" : "VEC3"
        },
        {
            "bufferView" : 17,
            "componentType" : 5126,
            "count" : 42,
            "type" : "VEC3"
        },
        {
            "bufferView" : 18,
            "componentType" : 5126,
            "count" : 42,
            "type" : "VEC2"
        },
        {
            "bufferView" : 19,
            "componentType" : 5123,
            "count" : 84,
            "type" : "SCALAR"
        }
    ],
    "bufferViews" : [
        {
            "buffer" : 0,
            "byteLength" : 504,
            "byteOffset" : 0
        },
        {
            "buffer" : 0,
            "byteLength" : 504,
            "byteOffset" : 504
        },
        {
            "buffer" : 0,
            "byteLength" : 336,
            "byteOffset" : 1008
        },
        {
            "buffer" : 0,
            "byteLength" : 168,
            "byteOffset" : 1344
        },
        {
            "buffer" : 0,
            "byteLength" : 5292,
            "byteOffset" : 1512
        },
        {
            "buffer" : 0,
            "byteLength" : 5292,
            "byteOffset" : 6804
        },
        {
            "buffer" : 0,
            "byteLength" : 3528,
            "byteOffset" : 12096
        },
        {
            "buffer" : 0,
            "byteLength" : 3816,
            "byteOffset" : 15624
        },
        {
            "buffer" : 0,
            "byteLength" : 1008,
            "byteOffset" : 19440
        },
        {
            "buffer" : 0,
            "byteLength" : 1008,
            "byteOffset" : 20448
        },
        {
            "buffer" : 0,
            "byteLength" : 672,
            "byteOffset" : 21456
        },
        {
            "buffer" : 0,
            "byteLength" : 336,
            "byteOffset" : 22128
        },
        {
            "buffer" : 0,
            "byteLength" : 1008,
            "byteOffset" : 22464
        },
        {
            "buffer" : 0,
            "byteLength" : 1008,
            "byteOffset" : 23472
        },
        {
            "buffer" : 0,
            "byteLength" : 672,
            "byteOffset" : 24480
        },
        {
            "buffer" : 0,
            "byteLength" : 336,
            "byteOffset" : 25152
        },
        {
            "buffer" : 0,
            "byteLength" : 504,
            "byteOffset" : 25488
        },
        {
            "buffer" : 0,
            "byteLength" : 504,
            "byteOffset" : 25992
        },
        {
            "buffer" : 0,
            "byteLength" : 336,
            "byteOffset" : 26496
        },
        {
            "buffer" : 0,
            "byteLength" : 168,
            "byteOffset" : 26832
        }
    ],
    "samplers" : [
        {
            "magFilter" : 9728,
            "minFilter" : 9984
        }
    ],
    "buffers" : [
        {
            "byteLength" : 27000,
            "uri" : "croissantStrawberry.bin"
        }
    ]
}
