# Blender v2.93.5 OBJ File: ''
# www.blender.org
o Cube.001
v 0.000000 1.000000 0.000000
v -0.617458 0.561698 1.000000
v 0.000000 0.677798 1.000000
v -1.000000 -0.000000 1.000000
v 0.038863 -0.099139 2.033098
v -0.753874 0.753874 0.000000
v -1.000000 0.000000 -1.000000
v -1.000000 0.000000 0.000000
v 0.000000 -1.000000 -0.000000
v 0.617458 -0.561698 1.000000
v 0.000000 -0.677798 1.000000
v 1.000000 0.000000 0.000000
v 0.617458 0.561698 1.000000
v 1.000000 -0.000000 1.000000
v 0.753874 0.753874 -1.000000
v 0.678804 0.583705 -1.751846
v 0.753874 0.894583 -1.373362
v -0.753874 -0.753874 -1.000000
v 0.000000 -0.416295 -1.751846
v 0.000000 -1.000000 -1.000000
v -0.617458 -0.561698 1.000000
v -0.753874 -0.753874 -0.000000
v 0.753874 0.753874 0.000000
v 0.000000 1.000000 -1.000000
v 1.000000 0.000000 -1.000000
v 0.753874 -0.753874 -1.000000
v -0.753874 0.753874 -1.000000
v 0.753874 -0.753874 -0.000000
v 0.753874 -0.170169 -1.751846
v -0.753874 -0.170169 -1.751846
v -0.678804 0.583705 -1.751846
v -0.499863 1.538152 -1.903096
v -0.450087 1.524394 -2.154053
v 0.499863 1.024531 -2.154053
v 0.450087 1.524394 -2.154053
v 0.000000 1.140709 -1.373362
v 0.499863 1.538152 -1.903096
v 0.000000 1.544543 -1.794685
v -0.753874 0.894583 -1.373362
v -0.499863 1.538152 -1.903096
v -0.424053 1.612986 -2.363871
v -0.379254 1.524394 -2.448284
v 0.000000 0.861335 -2.154053
v -0.421196 1.024531 -2.448284
v 0.000000 0.861335 -2.448284
v 0.499863 1.538152 -1.903096
v -0.499863 1.024531 -2.154053
v -0.258354 1.132146 -2.631335
v 0.000000 1.524394 -2.448284
v 0.232627 1.390499 -2.631335
v 0.000000 1.390499 -2.631335
v 0.421196 1.024531 -2.448284
v 0.379254 1.524394 -2.448284
v 0.000000 1.524394 -2.448284
v 0.384364 1.588663 -2.353616
v -0.450087 1.524394 -2.154053
v -0.204499 1.743327 -2.071160
v -0.376665 1.729569 -2.161044
v -0.184135 1.729569 -2.294201
v 0.000000 1.729569 -2.347260
v 0.000000 1.711241 -1.849036
v 0.450087 1.524394 -2.154053
v 0.204499 1.743327 -2.071160
v 0.000000 1.775500 -2.161044
v 0.376665 1.729569 -2.161044
v 0.184135 1.729569 -2.294201
v 0.000000 1.749719 -2.018101
v 0.000000 1.247263 -2.945997
v 0.258354 1.132146 -2.631335
v 0.000000 1.047797 -2.631335
v -0.232627 1.390499 -2.631335
vt 0.095718 0.147966
vt 0.108325 0.296588
vt 0.036900 0.281650
vt 0.145609 0.350325
vt 0.024340 0.449162
vt 0.177165 0.216197
vt 0.325843 0.224000
vt 0.230974 0.289290
vt 0.320424 0.541022
vt 0.180234 0.595238
vt 0.174846 0.522516
vt 0.223331 0.710597
vt 0.100714 0.699591
vt 0.139049 0.646326
vt 0.267792 0.866022
vt 0.378359 0.893541
vt 0.307766 0.909456
vt 0.373543 0.301502
vt 0.515385 0.254326
vt 0.443893 0.382606
vt 0.319113 0.459141
vt 0.184430 0.402344
vt 0.279846 0.364360
vt 0.029780 0.713345
vt 0.024340 0.547901
vt 0.084346 0.846266
vt 0.167688 0.781471
vt 0.188535 0.952673
vt 0.317720 0.775219
vt 0.368683 0.698324
vt 0.438557 0.625162
vt 0.277171 0.134773
vt 0.200185 0.050936
vt 0.274262 0.637839
vt 0.505497 0.749205
vt 0.408056 0.797508
vt 0.415961 0.203427
vt 0.176199 0.473835
vt 0.606275 0.088753
vt 0.705876 0.158114
vt 0.692030 0.187838
vt 0.618161 0.458307
vt 0.635843 0.388858
vt 0.689333 0.354147
vt 0.762921 0.454230
vt 0.706192 0.378501
vt 0.761777 0.387592
vt 0.751816 0.071727
vt 0.658047 0.062784
vt 0.769295 0.500664
vt 0.672572 0.476923
vt 0.316329 0.091878
vt 0.386664 0.107256
vt 0.761551 0.138969
vt 0.706325 0.158731
vt 0.688651 0.220025
vt 0.672087 0.224923
vt 0.567121 0.157641
vt 0.621034 0.192021
vt 0.568151 0.196419
vt 0.706480 0.377895
vt 0.505497 0.956314
vt 0.423296 0.975660
vt 0.432407 0.024340
vt 0.515385 0.043960
vt 0.613790 0.222708
vt 0.668088 0.274553
vt 0.637176 0.303928
vt 0.638341 0.273417
vt 0.619365 0.355805
vt 0.665203 0.320545
vt 0.668942 0.274614
vt 0.679054 0.323993
vt 0.566763 0.396436
vt 0.633594 0.158444
vt 0.692552 0.187977
vt 0.735899 0.193143
vt 0.713051 0.203029
vt 0.958610 0.069793
vt 0.997756 0.040265
vt 0.994117 0.069793
vt 0.769295 0.164365
vt 0.689863 0.353866
vt 0.728474 0.341201
vt 0.765095 0.362303
vt 0.751522 0.317875
vt 0.706024 0.336346
vt 0.764205 0.211787
vt 0.715765 0.309759
vt 0.738968 0.290261
vt 0.729861 0.227560
vt 0.758236 0.338754
vt 0.997756 0.099321
vt 0.973733 0.130192
vt 0.639032 0.646266
vt 0.657363 0.624253
vt 0.671748 0.673510
vt 0.689334 0.624466
vt 0.579749 0.227347
vt 0.641116 0.241851
vt 0.564065 0.355932
vt 0.609479 0.324173
vt 0.626698 0.699683
vt 0.620701 0.668279
vt 0.655650 0.716470
vt 0.711084 0.649901
vt 0.751125 0.024340
vt 0.975871 0.003479
vt 0.766784 0.189588
vt 0.757402 0.242304
vt 0.638599 0.272098
vt 0.573372 0.322447
vn 0.0000 0.9919 0.1272
vn -0.4423 0.5569 0.7030
vn -0.0025 0.8387 0.5445
vn -0.9021 0.0055 0.4315
vn 0.0239 -0.0741 0.9970
vn -0.6994 0.7062 0.1105
vn -0.9924 -0.0072 -0.1230
vn -0.9980 -0.0000 0.0636
vn -0.0000 -0.9919 0.1272
vn 0.4423 -0.5569 0.7030
vn -0.0031 -0.8654 0.5011
vn 0.9980 -0.0000 0.0636
vn 0.4423 0.5569 0.7030
vn 0.9069 0.0060 0.4213
vn 0.7640 0.6439 0.0409
vn 0.9559 0.1120 -0.2715
vn 0.8880 0.4337 0.1528
vn -0.6523 -0.7152 -0.2510
vn 0.0000 -0.6086 -0.7935
vn 0.0000 -0.9520 -0.3060
vn -0.4423 -0.5569 0.7030
vn -0.6994 -0.7062 0.1105
vn 0.6994 0.7062 0.1105
vn -0.0000 0.9826 0.1858
vn 0.9924 -0.0072 -0.1230
vn 0.6523 -0.7152 -0.2510
vn -0.7640 0.6439 0.0409
vn 0.6994 -0.7062 0.1105
vn 0.6390 -0.3599 -0.6798
vn -0.6390 -0.3599 -0.6798
vn -0.9546 0.1157 -0.2745
vn -0.5138 0.3150 0.7980
vn -0.8331 0.0596 0.5498
vn 0.8364 -0.2286 -0.4982
vn 0.8200 0.1056 0.5625
vn 0.0000 0.8237 0.5670
vn 0.5138 0.3150 0.7980
vn 0.0000 0.5459 0.8379
vn -0.8880 0.4337 0.1528
vn -0.2309 0.3521 0.9070
vn -0.7429 0.4204 -0.5209
vn -0.6216 0.4308 -0.6543
vn 0.0000 -0.7445 -0.6676
vn -0.7363 -0.5156 -0.4382
vn -0.0000 -0.9366 -0.3503
vn 0.2309 0.3521 0.9070
vn -0.8364 -0.2286 -0.4982
vn -0.5960 -0.3663 -0.7146
vn 0.0000 0.8917 0.4526
vn 0.4690 0.5337 -0.7037
vn 0.0000 0.8631 -0.5050
vn 0.7363 -0.5156 -0.4382
vn 0.6205 0.5316 -0.5765
vn 0.0292 0.9551 0.2949
vn 0.6427 0.5819 -0.4983
vn -0.5072 0.3627 0.7817
vn -0.2800 0.9221 0.2672
vn -0.6119 0.7393 0.2812
vn -0.1453 0.8413 -0.5207
vn -0.0000 0.7438 -0.6684
vn 0.0000 0.7243 0.6895
vn 0.5332 0.3785 0.7566
vn 0.2800 0.9221 0.2672
vn -0.0000 0.9995 -0.0306
vn 0.6538 0.7247 0.2177
vn 0.1850 0.8192 -0.5428
vn -0.0000 0.9791 0.2032
vn 0.0000 0.0300 -0.9995
vn 0.5960 -0.3663 -0.7146
vn 0.0000 -0.7684 -0.6400
vn -0.4690 0.5337 -0.7037
s 1
f 1/1/1 2/2/2 3/3/3
f 3/3/3 4/4/4 5/5/5
f 6/6/6 7/7/7 8/8/8
f 9/9/9 10/10/10 11/11/11
f 12/12/12 13/13/13 14/14/14
f 15/15/15 16/16/16 17/17/17
f 18/18/18 19/19/19 20/20/20
f 9/21/9 21/22/21 22/23/22
f 14/14/14 3/24/3 5/25/5
f 1/26/1 13/13/13 23/27/23
f 24/28/24 23/27/23 15/15/15
f 20/20/20 22/23/22 18/18/18
f 15/15/15 12/12/12 25/29/25
f 26/30/26 9/9/9 20/31/20
f 2/2/2 8/8/8 4/4/4
f 27/32/27 1/1/1 24/33/24
f 21/22/21 8/8/8 22/23/22
f 25/29/25 28/34/28 26/30/26
f 14/14/14 11/11/11 10/10/10
f 26/30/26 19/35/19 29/36/29
f 7/7/7 30/37/30 18/18/18
f 12/12/12 10/10/10 28/34/28
f 8/8/8 18/18/18 22/23/22
f 11/38/11 4/4/4 21/22/21
f 31/39/31 32/40/32 33/41/33
f 16/42/16 34/43/34 35/44/35
f 36/45/36 37/46/37 38/47/38
f 36/48/36 32/40/32 39/49/39
f 24/50/24 17/51/17 36/45/36
f 24/33/24 39/52/39 27/32/27
f 27/32/27 31/53/31 7/7/7
f 25/29/25 29/36/29 16/16/16
f 38/54/38 40/55/40 32/40/32
f 33/41/33 41/56/41 42/57/42
f 43/58/43 44/59/44 45/60/45
f 35/44/35 46/61/46 37/46/37
f 29/36/29 43/62/43 34/63/34
f 31/53/31 47/64/47 30/37/30
f 30/37/30 43/65/43 19/19/19
f 16/42/16 37/46/37 17/51/17
f 42/57/42 48/66/48 44/59/44
f 49/67/49 50/68/50 51/69/51
f 35/44/35 52/70/52 53/71/53
f 53/71/53 54/72/54 55/73/55
f 43/74/43 52/70/52 34/43/34
f 33/41/33 44/59/44 47/75/47
f 56/76/56 57/77/57 58/78/58
f 54/79/54 59/80/59 60/81/60
f 61/82/61 57/77/57 40/55/40
f 62/83/62 63/84/63 46/61/46
f 38/47/38 46/61/46 61/85/61
f 42/57/42 54/72/54 49/67/49
f 32/40/32 56/76/56 33/41/33
f 35/44/35 55/73/55 62/83/62
f 64/86/64 63/84/63 65/87/65
f 57/77/57 64/88/64 58/78/58
f 64/86/64 66/89/66 60/90/60
f 64/88/64 59/91/59 58/78/58
f 55/73/55 65/87/65 62/83/62
f 41/56/41 58/78/58 59/91/59
f 61/85/61 63/84/63 67/92/67
f 54/79/54 66/93/66 55/94/55
f 51/95/51 50/96/50 68/97/68
f 50/96/50 69/98/69 68/97/68
f 45/60/45 48/66/48 70/99/70
f 49/67/49 71/100/71 42/57/42
f 45/101/45 69/102/69 52/70/52
f 53/71/53 69/102/69 50/68/50
f 48/103/48 71/104/71 68/97/68
f 70/105/70 48/103/48 68/97/68
f 71/104/71 51/95/51 68/97/68
f 69/98/69 70/106/70 68/97/68
f 1/1/1 6/6/6 2/2/2
f 3/3/3 2/2/2 4/4/4
f 6/6/6 27/32/27 7/7/7
f 9/9/9 28/34/28 10/10/10
f 12/12/12 23/27/23 13/13/13
f 15/15/15 25/29/25 16/16/16
f 18/18/18 30/37/30 19/19/19
f 9/21/9 11/38/11 21/22/21
f 14/14/14 13/13/13 3/24/3
f 1/26/1 3/24/3 13/13/13
f 24/28/24 1/26/1 23/27/23
f 20/20/20 9/21/9 22/23/22
f 15/15/15 23/27/23 12/12/12
f 26/30/26 28/34/28 9/9/9
f 2/2/2 6/6/6 8/8/8
f 27/32/27 6/6/6 1/1/1
f 21/22/21 4/4/4 8/8/8
f 25/29/25 12/12/12 28/34/28
f 14/14/14 5/25/5 11/11/11
f 26/30/26 20/31/20 19/35/19
f 7/7/7 31/53/31 30/37/30
f 12/12/12 14/14/14 10/10/10
f 8/8/8 7/7/7 18/18/18
f 11/38/11 5/5/5 4/4/4
f 31/39/31 39/49/39 32/40/32
f 16/16/16 29/36/29 34/63/34
f 36/45/36 17/51/17 37/46/37
f 36/48/36 38/54/38 32/40/32
f 24/28/24 15/15/15 17/17/17
f 24/107/24 36/48/36 39/49/39
f 27/32/27 39/52/39 31/53/31
f 25/29/25 26/30/26 29/36/29
f 38/54/38 61/82/61 40/55/40
f 33/41/33 56/76/56 41/56/41
f 43/58/43 47/75/47 44/59/44
f 35/44/35 62/83/62 46/61/46
f 29/36/29 19/35/19 43/62/43
f 31/39/31 33/41/33 47/75/47
f 30/37/30 47/64/47 43/65/43
f 16/42/16 35/44/35 37/46/37
f 42/57/42 71/100/71 48/66/48
f 49/67/49 53/71/53 50/68/50
f 35/44/35 34/43/34 52/70/52
f 53/71/53 49/67/49 54/72/54
f 43/74/43 45/101/45 52/70/52
f 33/41/33 42/57/42 44/59/44
f 56/76/56 40/55/40 57/77/57
f 54/79/54 41/108/41 59/80/59
f 61/82/61 67/109/67 57/77/57
f 62/83/62 65/87/65 63/84/63
f 38/47/38 37/46/37 46/61/46
f 42/57/42 41/56/41 54/72/54
f 32/40/32 40/55/40 56/76/56
f 35/44/35 53/71/53 55/73/55
f 64/86/64 67/92/67 63/84/63
f 57/77/57 67/109/67 64/88/64
f 64/86/64 65/87/65 66/89/66
f 64/88/64 60/110/60 59/91/59
f 55/73/55 66/89/66 65/87/65
f 41/56/41 56/76/56 58/78/58
f 61/85/61 46/61/46 63/84/63
f 54/79/54 60/81/60 66/93/66
f 45/60/45 44/59/44 48/66/48
f 49/67/49 51/111/51 71/100/71
f 45/101/45 70/112/70 69/102/69
f 53/71/53 52/70/52 69/102/69
