# Blender v2.93.5 OBJ File: ''
# www.blender.org
o Cube
v 0.753874 0.753874 -1.000000
v 0.753874 -0.753874 -1.000000
v 0.617458 0.561698 1.000000
v 0.617458 -0.561698 1.000000
v -0.753874 0.753874 -1.000000
v -0.753874 -0.753874 -1.000000
v -0.617458 0.561698 1.000000
v -0.617458 -0.561698 1.000000
v 0.000000 -1.000000 -1.000000
v 0.000000 0.677798 1.000000
v 0.000000 -0.677798 1.000000
v 0.000000 1.000000 -1.000000
v -0.753874 -0.753874 0.000000
v 0.753874 0.753874 0.000000
v -0.753874 0.753874 0.000000
v 0.753874 -0.753874 0.000000
v 0.000000 -1.000000 0.000000
v 0.000000 1.000000 0.000000
v 1.000000 0.000000 -1.000000
v -1.000000 0.000000 1.000000
v 1.000000 0.000000 1.000000
v -1.000000 0.000000 -1.000000
v 0.000000 0.861335 -2.154053
v 0.038863 -0.099139 2.033098
v 1.000000 0.000000 0.000000
v -1.000000 0.000000 0.000000
v 0.000000 -0.416295 -1.751846
v -0.753874 -0.170169 -1.751846
v 0.678804 0.583705 -1.751846
v 0.753874 -0.170169 -1.751846
v -0.678804 0.583705 -1.751846
v 0.000000 1.140709 -1.373362
v 0.753874 0.894583 -1.373362
v -0.753874 0.894583 -1.373362
v 0.000000 0.861335 -2.448284
v -0.499863 1.024531 -2.154053
v 0.450087 1.524394 -2.154053
v 0.499863 1.024531 -2.154053
v -0.450087 1.524394 -2.154053
v 0.000000 1.544543 -1.794685
v 0.499863 1.538152 -1.903096
v -0.499863 1.538152 -1.903096
v 0.000000 1.749719 -2.018101
v -0.421196 1.024531 -2.448284
v 0.379254 1.524394 -2.448284
v 0.421196 1.024531 -2.448284
v -0.379254 1.524394 -2.448284
v 0.000000 1.524394 -2.448284
v 0.000000 1.711241 -1.849036
v 0.499863 1.538152 -1.903096
v -0.499863 1.538152 -1.903096
v 0.450087 1.524394 -2.154053
v 0.384364 1.588663 -2.353616
v -0.450087 1.524394 -2.154053
v 0.000000 1.047797 -2.631335
v -0.424053 1.612986 -2.363871
v 0.000000 1.524394 -2.448284
v 0.204499 1.743327 -2.071160
v -0.204499 1.743327 -2.071160
v 0.376665 1.729569 -2.161044
v 0.184135 1.729569 -2.294201
v -0.376665 1.729569 -2.161044
v 0.000000 1.775500 -2.161044
v -0.184135 1.729569 -2.294201
v 0.000000 1.729569 -2.347260
v -0.258354 1.132145 -2.631335
v 0.232627 1.390498 -2.631335
v 0.258354 1.132145 -2.631335
v -0.232627 1.390498 -2.631335
v 0.000000 1.390498 -2.631335
v 0.000000 1.247263 -2.945997
vt 0.538042 0.547574
vt 0.537655 0.547307
vt 0.537762 0.547268
vt 0.537561 0.547251
vt 0.537662 0.547158
vt 0.537606 0.547657
vt 0.536581 0.547725
vt 0.537328 0.547417
vt 0.537416 0.546903
vt 0.537667 0.547029
vt 0.537580 0.547074
vt 0.537947 0.546832
vt 0.537809 0.547164
vt 0.537759 0.547065
vt 0.539954 0.546370
vt 0.539895 0.541354
vt 0.541876 0.544634
vt 0.536794 0.547012
vt 0.536350 0.545946
vt 0.537076 0.546612
vt 0.537531 0.547159
vt 0.537297 0.547122
vt 0.538174 0.547143
vt 0.540348 0.549499
vt 0.538171 0.546011
vt 0.537452 0.546293
vt 0.537092 0.549482
vt 0.537640 0.546788
vt 0.537303 0.545165
vt 0.535672 0.546962
vt 0.532031 0.549949
vt 0.577830 0.441670
vt 0.696524 0.380347
vt 0.528509 0.620664
vt 0.403839 0.700599
vt 0.543560 0.552412
vt 0.441967 0.595114
vt 0.485918 0.501295
vt 0.535560 0.551603
vt 0.576812 0.439915
vt 0.957848 0.298573
vt 0.901682 0.470154
vt 0.580896 0.586656
vt 0.647659 0.562364
vt 0.606114 0.610609
vt 0.440324 0.594433
vt 0.613219 0.530946
vt 0.673334 0.606036
vt 0.947817 0.968596
vt 0.626646 0.774089
vt 0.730154 0.734555
vt 0.560275 0.652721
vt 0.488736 0.879829
vt 0.957848 0.979719
vt 0.394305 0.887210
vt 0.695590 0.377915
vt 0.478897 0.337297
vt 0.609630 0.258676
vt 0.958057 0.070980
vt 0.999896 0.039420
vt 0.996006 0.070980
vt 0.443769 0.464329
vt 0.401214 0.700131
vt 0.332869 0.521939
vt 0.239129 0.304202
vt 0.294386 0.649447
vt 0.006981 0.568384
vt 0.000104 0.127465
vt 0.426326 0.000104
vt 0.386328 0.417909
vt 0.999896 0.102539
vt 0.974221 0.135533
vt 0.662717 0.666225
vt 0.603707 0.676834
vt 0.631606 0.635339
vt 0.775327 0.629265
vt 0.976506 0.000104
vn -0.1762 0.9369 0.3019
vn -0.4718 0.6961 0.5412
vn -0.9506 0.3104 0.0000
vn 0.1762 -0.9369 0.3019
vn 0.8265 0.5629 0.0000
vn 0.9847 -0.1630 -0.0614
vn -0.2497 -0.7649 -0.5938
vn -0.3028 -0.9274 0.2195
vn 0.4808 0.7094 0.5154
vn 0.3028 0.9274 0.2195
vn 0.3104 0.9506 0.0000
vn -0.3104 -0.9506 0.0000
vn 0.9506 0.3104 0.0000
vn 0.3104 -0.9506 0.0000
vn -0.8265 0.5629 0.0000
vn -0.3104 0.9506 0.0000
vn -0.9340 -0.3049 0.1860
vn 0.9506 -0.3104 0.0000
vn 0.0000 0.0000 1.0000
vn 0.2497 -0.7649 -0.5938
vn -0.9242 -0.3017 -0.2342
vn 0.9340 -0.3049 0.1860
vn -0.9506 -0.3104 0.0000
vn -0.9682 0.1498 -0.2003
vn 0.9438 0.0940 -0.3169
vn 0.1573 0.7129 0.6833
vn -0.2188 0.6701 0.7092
vn 0.2922 0.8949 0.3373
vn -0.2922 0.8949 0.3373
vn -0.9379 0.3062 -0.1630
vn 0.9397 0.0936 -0.3288
vn -0.9389 -0.2594 -0.2260
vn -0.3613 -0.9325 0.0000
vn 0.0976 -0.2988 -0.9493
vn -0.9438 0.0940 -0.3169
vn -0.0976 -0.2988 -0.9493
vn 0.9465 0.1307 -0.2951
vn -0.7640 0.0641 -0.6420
vn 0.0000 0.8071 -0.5904
vn 0.9690 0.0813 -0.2333
vn 0.0000 0.8274 -0.5617
vn 0.3093 -0.9474 -0.0827
vn -0.9616 0.0958 -0.2571
vn -0.4661 0.1962 0.8627
vn -0.2503 0.4277 -0.8686
vn -0.3365 0.8373 0.4308
vn 0.6245 0.7633 -0.1657
vn 0.2057 0.3034 0.9304
vn 0.1207 0.9895 0.0797
vn -0.1207 0.9895 0.0797
vn 0.0688 0.9686 -0.2389
vn -0.1192 0.9778 -0.1724
vn 0.9246 0.3241 -0.2001
vn -0.2933 0.8569 -0.4240
vn 0.0877 0.9713 0.2211
vn 0.1197 0.5253 -0.8425
vn 0.0000 0.9101 -0.4143
vn 0.7843 0.0781 -0.6154
vn -0.2230 -0.6829 -0.6956
vn 0.2726 -0.7036 -0.6562
vn 0.7509 0.0748 -0.6562
vn -0.7843 0.0781 -0.6154
vn -0.2658 -0.8142 -0.5161
vn 0.2658 -0.8142 -0.5161
vn -0.3028 0.9274 0.2195
vn 0.3028 -0.9274 0.2195
vn 0.9340 0.3049 0.1860
vn 0.9379 0.3062 -0.1630
vn -0.1762 -0.9369 0.3019
vn 0.1762 0.9369 0.3019
vn -0.9340 0.3049 0.1860
vn -0.8265 -0.5629 0.0000
vn 0.5131 -0.7570 0.4047
vn -0.9397 0.0936 -0.3288
vn 0.8265 -0.5629 0.0000
vn -0.5049 -0.7449 0.4362
vn -0.9465 0.1307 -0.2951
vn 0.2188 0.6701 0.7092
vn -0.1573 0.7129 0.6833
vn -0.9847 -0.1630 -0.0614
vn 0.9242 -0.3017 -0.2342
vn -0.2057 0.3034 0.9304
vn -0.3093 -0.9474 -0.0827
vn 0.9682 0.1498 -0.2003
vn -0.7509 0.0748 -0.6562
vn 0.9616 0.0958 -0.2571
vn 0.3613 -0.9325 0.0000
vn -0.9690 0.0813 -0.2333
vn -0.6245 0.7633 -0.1657
vn -0.0424 0.5754 -0.8168
vn -0.0877 0.9713 0.2211
vn 0.4661 0.1962 0.8627
vn 0.0000 0.6898 -0.7240
vn 0.9392 0.2584 -0.2261
vn 0.0766 0.9812 0.1770
vn -0.0766 0.9812 0.1770
vn 0.1192 0.9778 -0.1724
vn -0.0688 0.9686 -0.2389
vn 0.3723 0.7560 -0.5383
vn -0.9409 0.3376 0.0258
vn 0.3365 0.8373 0.4308
vn 0.2503 0.4277 -0.8686
vn -0.2726 -0.7036 -0.6562
vn 0.2230 -0.6829 -0.6956
vn 0.7640 0.0641 -0.6420
g Cube_Cube_Material
s off
f 18/1/1 7/2/1 10/3/1
f 10/3/2 20/4/2 24/5/2
f 15/6/3 22/7/3 26/8/3
f 17/9/4 4/10/4 11/11/4
f 25/12/5 3/13/5 21/14/5
f 1/15/6 29/16/6 33/17/6
f 6/18/7 27/19/7 9/20/7
f 17/9/8 8/21/8 13/22/8
f 21/14/9 10/3/9 24/5/9
f 18/1/10 3/13/10 14/23/10
f 12/24/11 14/23/11 1/15/11
f 9/20/12 13/22/12 6/18/12
f 1/15/13 25/12/13 19/25/13
f 2/26/14 17/9/14 9/20/14
f 7/2/15 26/8/15 20/4/15
f 5/27/16 18/1/16 12/24/16
f 8/21/17 26/8/17 13/22/17
f 19/25/18 16/28/18 2/26/18
f 21/14/19 11/11/19 4/10/19
f 2/26/20 27/19/20 30/29/20
f 22/7/21 28/30/21 6/18/21
f 25/12/22 4/10/22 16/28/22
f 26/8/23 6/18/23 13/22/23
f 11/11/19 20/4/19 8/21/19
f 31/31/24 42/32/24 39/33/24
f 29/16/25 38/34/25 37/35/25
f 32/36/26 41/37/26 40/38/26
f 32/36/27 42/32/27 34/39/27
f 12/24/28 33/17/28 32/36/28
f 12/24/29 34/39/29 5/27/29
f 5/27/30 31/31/30 22/7/30
f 19/25/31 30/29/31 29/16/31
f 40/38/19 51/40/19 42/32/19
f 39/33/32 56/41/32 47/42/32
f 23/43/33 44/44/33 35/45/33
f 37/35/19 50/46/19 41/37/19
f 30/29/34 23/43/34 38/34/34
f 31/31/35 36/47/35 28/30/35
f 28/30/36 23/43/36 27/19/36
f 29/16/37 41/37/37 33/17/37
f 47/42/38 66/48/38 44/44/38
f 48/49/39 67/50/39 70/51/39
f 37/35/40 46/52/40 45/53/40
f 45/53/41 57/54/41 53/55/41
f 23/43/42 46/52/42 38/34/42
f 39/33/43 44/44/43 36/47/43
f 54/56/44 59/57/44 62/58/44
f 57/59/45 64/60/45 65/61/45
f 49/62/46 59/57/46 51/40/46
f 52/63/47 58/64/47 50/46/47
f 40/38/48 50/46/48 49/62/48
f 47/42/19 57/54/19 48/49/19
f 42/32/19 54/56/19 39/33/19
f 37/35/19 53/55/19 52/63/19
f 63/65/49 58/64/49 60/66/49
f 59/57/50 63/65/50 62/58/50
f 63/65/51 61/67/51 65/68/51
f 63/65/52 64/69/52 62/58/52
f 53/55/53 60/66/53 52/63/53
f 56/41/54 62/58/54 64/69/54
f 49/62/55 58/64/55 43/70/55
f 57/59/56 61/71/56 53/72/56
f 70/51/57 67/50/57 71/73/57
f 67/50/58 68/74/58 71/73/58
f 35/45/59 66/48/59 55/75/59
f 48/49/39 69/76/39 47/42/39
f 35/45/60 68/74/60 46/52/60
f 45/53/61 68/74/61 67/50/61
f 66/48/62 69/76/62 71/73/62
f 55/75/63 66/48/63 71/73/63
f 69/76/57 70/51/57 71/73/57
f 68/74/64 55/75/64 71/73/64
f 18/1/65 15/6/65 7/2/65
f 10/3/19 7/2/19 20/4/19
f 15/6/3 5/27/3 22/7/3
f 17/9/66 16/28/66 4/10/66
f 25/12/67 14/23/67 3/13/67
f 1/15/68 19/25/68 29/16/68
f 6/18/7 28/30/7 27/19/7
f 17/9/69 11/11/69 8/21/69
f 21/14/19 3/13/19 10/3/19
f 18/1/70 10/3/70 3/13/70
f 12/24/11 18/1/11 14/23/11
f 9/20/12 17/9/12 13/22/12
f 1/15/13 14/23/13 25/12/13
f 2/26/14 16/28/14 17/9/14
f 7/2/71 15/6/71 26/8/71
f 5/27/16 15/6/16 18/1/16
f 8/21/72 20/4/72 26/8/72
f 19/25/18 25/12/18 16/28/18
f 21/14/73 24/5/73 11/11/73
f 2/26/20 9/20/20 27/19/20
f 22/7/74 31/31/74 28/30/74
f 25/12/75 21/14/75 4/10/75
f 26/8/23 22/7/23 6/18/23
f 11/11/76 24/5/76 20/4/76
f 31/31/77 34/39/77 42/32/77
f 29/16/25 30/29/25 38/34/25
f 32/36/78 33/17/78 41/37/78
f 32/36/79 40/38/79 42/32/79
f 12/24/28 1/15/28 33/17/28
f 12/24/29 32/36/29 34/39/29
f 5/27/80 34/39/80 31/31/80
f 19/25/81 2/26/81 30/29/81
f 40/38/82 49/62/82 51/40/82
f 39/33/19 54/56/19 56/41/19
f 23/43/83 36/47/83 44/44/83
f 37/35/19 52/63/19 50/46/19
f 30/29/34 27/19/34 23/43/34
f 31/31/35 39/33/35 36/47/35
f 28/30/36 36/47/36 23/43/36
f 29/16/84 37/35/84 41/37/84
f 47/42/85 69/76/85 66/48/85
f 48/49/39 45/53/39 67/50/39
f 37/35/86 38/34/86 46/52/86
f 45/53/19 48/49/19 57/54/19
f 23/43/87 35/45/87 46/52/87
f 39/33/88 47/42/88 44/44/88
f 54/56/89 51/40/89 59/57/89
f 57/59/90 56/77/90 64/60/90
f 49/62/91 43/70/91 59/57/91
f 52/63/92 60/66/92 58/64/92
f 40/38/19 41/37/19 50/46/19
f 47/42/93 56/41/93 57/54/93
f 42/32/19 51/40/19 54/56/19
f 37/35/94 45/53/94 53/55/94
f 63/65/95 43/70/95 58/64/95
f 59/57/96 43/70/96 63/65/96
f 63/65/97 60/66/97 61/67/97
f 63/65/98 65/68/98 64/69/98
f 53/55/99 61/67/99 60/66/99
f 56/41/100 54/56/100 62/58/100
f 49/62/101 50/46/101 58/64/101
f 57/59/102 65/61/102 61/71/102
f 35/45/103 44/44/103 66/48/103
f 48/49/39 70/51/39 69/76/39
f 35/45/104 55/75/104 68/74/104
f 45/53/105 46/52/105 68/74/105
