# Blender v2.93.5 OBJ File: ''
# www.blender.org
o Cylinder
v 0.000000 -1.000000 0.000000
v 0.000000 1.000000 0.000000
v 0.000000 -1.000000 -1.000000
v 0.000000 1.000000 -1.000000
v 0.500000 -1.000000 -0.866025
v 0.500000 1.000000 -0.866025
v 0.866025 -1.000000 -0.500000
v 0.866025 1.000000 -0.500000
v 1.000000 -1.000000 0.000000
v 1.000000 1.000000 0.000000
v 0.866025 -1.000000 0.500000
v 0.866025 1.000000 0.500000
v 0.500000 -1.000000 0.866025
v 0.500000 1.000000 0.866025
v -0.000000 -1.000000 1.000000
v -0.000000 1.000000 1.000000
v -0.500000 -1.000000 0.866025
v -0.500000 1.000000 0.866025
v -0.866025 -1.000000 0.500000
v -0.866025 1.000000 0.500000
v -1.000000 -1.000000 -0.000000
v -1.000000 1.000000 -0.000000
v -0.866025 -1.000000 -0.500000
v -0.866025 1.000000 -0.500000
v -0.500000 -1.000000 -0.866025
v -0.500000 1.000000 -0.866025
vt 0.750000 0.250000
vt 0.750000 0.490000
vt 0.870000 0.457846
vt 0.250000 0.250000
vt 0.370000 0.457846
vt 0.250000 0.490000
vt 1.000000 1.000000
vt 0.916667 0.500000
vt 1.000000 0.500000
vt 0.957846 0.370000
vt 0.457846 0.370000
vt 0.916667 1.000000
vt 0.833333 0.500000
vt 0.990000 0.250000
vt 0.490000 0.250000
vt 0.833333 1.000000
vt 0.750000 0.500000
vt 0.957846 0.130000
vt 0.457846 0.130000
vt 0.750000 1.000000
vt 0.666667 0.500000
vt 0.870000 0.042154
vt 0.370000 0.042154
vt 0.666667 1.000000
vt 0.583333 0.500000
vt 0.750000 0.010000
vt 0.250000 0.010000
vt 0.583333 1.000000
vt 0.500000 0.500000
vt 0.630000 0.042154
vt 0.130000 0.042154
vt 0.500000 1.000000
vt 0.416667 0.500000
vt 0.542154 0.130000
vt 0.042154 0.130000
vt 0.416667 1.000000
vt 0.333333 0.500000
vt 0.510000 0.250000
vt 0.010000 0.250000
vt 0.333333 1.000000
vt 0.250000 0.500000
vt 0.542154 0.370000
vt 0.042154 0.370000
vt 0.250000 1.000000
vt 0.166667 0.500000
vt 0.630000 0.457846
vt 0.130000 0.457846
vt 0.166667 1.000000
vt 0.083333 0.500000
vt 0.083333 1.000000
vt 0.000000 0.500000
vt 0.000000 1.000000
vn 0.0000 -1.0000 0.0000
vn 0.0000 1.0000 0.0000
vn 0.2588 0.0000 -0.9659
vn 0.7071 0.0000 -0.7071
vn 0.9659 0.0000 -0.2588
vn 0.9659 0.0000 0.2588
vn 0.7071 0.0000 0.7071
vn 0.2588 0.0000 0.9659
vn -0.2588 0.0000 0.9659
vn -0.7071 0.0000 0.7071
vn -0.9659 0.0000 0.2588
vn -0.9659 0.0000 -0.2588
vn -0.7071 0.0000 -0.7071
vn -0.2588 0.0000 -0.9659
s off
f 1/1/1 3/2/1 5/3/1
f 2/4/2 6/5/2 4/6/2
f 4/7/3 5/8/3 3/9/3
f 1/1/1 5/3/1 7/10/1
f 2/4/2 8/11/2 6/5/2
f 6/12/4 7/13/4 5/8/4
f 1/1/1 7/10/1 9/14/1
f 2/4/2 10/15/2 8/11/2
f 8/16/5 9/17/5 7/13/5
f 1/1/1 9/14/1 11/18/1
f 2/4/2 12/19/2 10/15/2
f 10/20/6 11/21/6 9/17/6
f 1/1/1 11/18/1 13/22/1
f 2/4/2 14/23/2 12/19/2
f 12/24/7 13/25/7 11/21/7
f 1/1/1 13/22/1 15/26/1
f 2/4/2 16/27/2 14/23/2
f 14/28/8 15/29/8 13/25/8
f 1/1/1 15/26/1 17/30/1
f 2/4/2 18/31/2 16/27/2
f 16/32/9 17/33/9 15/29/9
f 1/1/1 17/30/1 19/34/1
f 2/4/2 20/35/2 18/31/2
f 18/36/10 19/37/10 17/33/10
f 1/1/1 19/34/1 21/38/1
f 2/4/2 22/39/2 20/35/2
f 20/40/11 21/41/11 19/37/11
f 1/1/1 21/38/1 23/42/1
f 2/4/2 24/43/2 22/39/2
f 22/44/12 23/45/12 21/41/12
f 1/1/1 23/42/1 25/46/1
f 2/4/2 26/47/2 24/43/2
f 24/48/13 25/49/13 23/45/13
f 1/1/1 25/46/1 3/2/1
f 2/4/2 4/6/2 26/47/2
f 26/50/14 3/51/14 25/49/14
f 4/7/3 6/12/3 5/8/3
f 6/12/4 8/16/4 7/13/4
f 8/16/5 10/20/5 9/17/5
f 10/20/6 12/24/6 11/21/6
f 12/24/7 14/28/7 13/25/7
f 14/28/8 16/32/8 15/29/8
f 16/32/9 18/36/9 17/33/9
f 18/36/10 20/40/10 19/37/10
f 20/40/11 22/44/11 21/41/11
f 22/44/12 24/48/12 23/45/12
f 24/48/13 26/50/13 25/49/13
f 26/50/14 4/52/14 3/51/14
