{
    "asset" : {
        "generator" : "Khronos glTF Blender I/O v1.6.16",
        "version" : "2.0"
    },
    "scene" : 0,
    "scenes" : [
        {
            "name" : "Scene",
            "nodes" : [
                0,
                1
            ]
        }
    ],
    "nodes" : [
        {
            "name" : "Light",
            "rotation" : [
                0.16907575726509094,
                0.7558803558349609,
                -0.27217137813568115,
                0.570947527885437
            ],
            "translation" : [
                4.076245307922363,
                5.903861999511719,
                -7.005454063415527
            ]
        },
        {
            "mesh" : 0,
            "name" : "WallWood.003",
            "translation" : [
                -4.093119144439697,
                0.0006157103925943375,
                -1.0739860534667969
            ]
        }
    ],
    "materials" : [
        {
            "doubleSided" : true,
            "name" : "bakeryMat",
            "pbrMetallicRoughness" : {
                "baseColorTexture" : {
                    "index" : 0
                },
                "metallicFactor" : 0,
                "roughnessFactor" : 0.5
            }
        }
    ],
    "meshes" : [
        {
            "name" : "Cube.114",
            "primitives" : [
                {
                    "attributes" : {
                        "POSITION" : 0,
                        "NORMAL" : 1,
                        "TEXCOORD_0" : 2
                    },
                    "indices" : 3,
                    "material" : 0
                }
            ]
        }
    ],
    "textures" : [
        {
            "sampler" : 0,
            "source" : 0
        }
    ],
    "images" : [
        {
            "mimeType" : "image/png",
            "name" : "bakeryTexture",
            "uri" : "bakeryTexture.png"
        }
    ],
    "accessors" : [
        {
            "bufferView" : 0,
            "componentType" : 5126,
            "count" : 5256,
            "max" : [
                10.393119812011719,
                3.500007152557373,
                6.37398624420166
            ],
            "min" : [
                -6.305920600891113,
                -0.0015443733427673578,
                -6.226014137268066
            ],
            "type" : "VEC3"
        },
        {
            "bufferView" : 1,
            "componentType" : 5126,
            "count" : 5256,
            "type" : "VEC3"
        },
        {
            "bufferView" : 2,
            "componentType" : 5126,
            "count" : 5256,
            "type" : "VEC2"
        },
        {
            "bufferView" : 3,
            "componentType" : 5123,
            "count" : 5904,
            "type" : "SCALAR"
        }
    ],
    "bufferViews" : [
        {
            "buffer" : 0,
            "byteLength" : 63072,
            "byteOffset" : 0
        },
        {
            "buffer" : 0,
            "byteLength" : 63072,
            "byteOffset" : 63072
        },
        {
            "buffer" : 0,
            "byteLength" : 42048,
            "byteOffset" : 126144
        },
        {
            "buffer" : 0,
            "byteLength" : 11808,
            "byteOffset" : 168192
        }
    ],
    "samplers" : [
        {
            "magFilter" : 9729,
            "minFilter" : 9987
        }
    ],
    "buffers" : [
        {
            "byteLength" : 180000,
            "uri" : "bakery.bin"
        }
    ]
}
