{
    "asset" : {
        "generator" : "Khronos glTF Blender I/O v1.6.16",
        "version" : "2.0"
    },
    "scene" : 0,
    "scenes" : [
        {
            "name" : "Scene",
            "nodes" : [
                0
            ]
        }
    ],
    "nodes" : [
        {
            "mesh" : 0,
            "name" : "LeftColumnWood.002"
        }
    ],
    "materials" : [
        {
            "doubleSided" : true,
            "name" : "interiorTexture",
            "pbrMetallicRoughness" : {
                "baseColorTexture" : {
                    "index" : 0
                },
                "metallicFactor" : 0,
                "roughnessFactor" : 0
            }
        },
        {
            "doubleSided" : true,
            "name" : "StainlessSteel.001",
            "pbrMetallicRoughness" : {
                "baseColorFactor" : [
                    0.5,
                    0.5,
                    0.5,
                    1
                ],
                "roughnessFactor" : 0.2990867495536804
            }
        }
    ],
    "meshes" : [
        {
            "name" : "Cube.006",
            "primitives" : [
                {
                    "attributes" : {
                        "POSITION" : 0,
                        "NORMAL" : 1,
                        "TEXCOORD_0" : 2
                    },
                    "indices" : 3,
                    "material" : 0
                },
                {
                    "attributes" : {
                        "POSITION" : 4,
                        "NORMAL" : 5,
                        "TEXCOORD_0" : 6
                    },
                    "indices" : 7,
                    "material" : 1
                }
            ]
        }
    ],
    "textures" : [
        {
            "sampler" : 0,
            "source" : 0
        }
    ],
    "images" : [
        {
            "mimeType" : "image/png",
            "name" : "interiorTexture",
            "uri" : "interiorTexture.png"
        }
    ],
    "accessors" : [
        {
            "bufferView" : 0,
            "componentType" : 5126,
            "count" : 4774,
            "max" : [
                7.649999618530273,
                3.515000104904175,
                6.300000190734863
            ],
            "min" : [
                -10.300000190734863,
                -0.20000001788139343,
                -6.300000190734863
            ],
            "type" : "VEC3"
        },
        {
            "bufferView" : 1,
            "componentType" : 5126,
            "count" : 4774,
            "type" : "VEC3"
        },
        {
            "bufferView" : 2,
            "componentType" : 5126,
            "count" : 4774,
            "type" : "VEC2"
        },
        {
            "bufferView" : 3,
            "componentType" : 5123,
            "count" : 8136,
            "type" : "SCALAR"
        },
        {
            "bufferView" : 4,
            "componentType" : 5126,
            "count" : 84,
            "max" : [
                6.099999904632568,
                2.6000003814697266,
                1.2500001192092896
            ],
            "min" : [
                5.965000152587891,
                1.1920928955078125e-07,
                -1.2500001192092896
            ],
            "type" : "VEC3"
        },
        {
            "bufferView" : 5,
            "componentType" : 5126,
            "count" : 84,
            "type" : "VEC3"
        },
        {
            "bufferView" : 6,
            "componentType" : 5126,
            "count" : 84,
            "type" : "VEC2"
        },
        {
            "bufferView" : 7,
            "componentType" : 5123,
            "count" : 126,
            "type" : "SCALAR"
        }
    ],
    "bufferViews" : [
        {
            "buffer" : 0,
            "byteLength" : 57288,
            "byteOffset" : 0
        },
        {
            "buffer" : 0,
            "byteLength" : 57288,
            "byteOffset" : 57288
        },
        {
            "buffer" : 0,
            "byteLength" : 38192,
            "byteOffset" : 114576
        },
        {
            "buffer" : 0,
            "byteLength" : 16272,
            "byteOffset" : 152768
        },
        {
            "buffer" : 0,
            "byteLength" : 1008,
            "byteOffset" : 169040
        },
        {
            "buffer" : 0,
            "byteLength" : 1008,
            "byteOffset" : 170048
        },
        {
            "buffer" : 0,
            "byteLength" : 672,
            "byteOffset" : 171056
        },
        {
            "buffer" : 0,
            "byteLength" : 252,
            "byteOffset" : 171728
        }
    ],
    "samplers" : [
        {
            "magFilter" : 9729,
            "minFilter" : 9987
        }
    ],
    "buffers" : [
        {
            "byteLength" : 171980,
            "uri" : "bakeryFull.bin"
        }
    ]
}
