{
    "asset" : {
        "generator" : "Khronos glTF Blender I/O v1.8.19",
        "version" : "2.0"
    },
    "scene" : 0,
    "scenes" : [
        {
            "name" : "Scene",
            "nodes" : [
                0
            ]
        }
    ],
    "nodes" : [
        {
            "mesh" : 0,
            "name" : "WheelBack_Object",
            "rotation" : [
                0,
                0,
                -0.7071067690849304,
                0.7071068286895752
            ],
            "scale" : [
                0.40551841259002686,
                0.9737533926963806,
                0.40551841259002686
            ],
            "translation" : [
                -0.9426622986793518,
                0.41199755668640137,
                3.282770872116089
            ]
        }
    ],
    "materials" : [
        {
            "doubleSided" : true,
            "name" : "Car_Material",
            "pbrMetallicRoughness" : {
                "baseColorTexture" : {
                    "index" : 0
                },
                "metallicFactor" : 0,
                "roughnessFactor" : 0.5
            }
        }
    ],
    "meshes" : [
        {
            "name" : "Plane.002",
            "primitives" : [
                {
                    "attributes" : {
                        "POSITION" : 0,
                        "NORMAL" : 1,
                        "TEXCOORD_0" : 2
                    },
                    "indices" : 3,
                    "material" : 0
                }
            ]
        }
    ],
    "textures" : [
        {
            "sampler" : 0,
            "source" : 0
        }
    ],
    "images" : [
        {
            "mimeType" : "image/png",
            "name" : "car",
            "uri" : "car.png"
        }
    ],
    "accessors" : [
        {
            "bufferView" : 0,
            "componentType" : 5126,
            "count" : 1042,
            "max" : [
                1.0040204524993896,
                2.074686050415039,
                1.8199052810668945
            ],
            "min" : [
                -4.647371292114258,
                -0.5187721252441406,
                -8.349261283874512
            ],
            "type" : "VEC3"
        },
        {
            "bufferView" : 1,
            "componentType" : 5126,
            "count" : 1042,
            "type" : "VEC3"
        },
        {
            "bufferView" : 2,
            "componentType" : 5126,
            "count" : 1042,
            "type" : "VEC2"
        },
        {
            "bufferView" : 3,
            "componentType" : 5123,
            "count" : 3012,
            "type" : "SCALAR"
        }
    ],
    "bufferViews" : [
        {
            "buffer" : 0,
            "byteLength" : 12504,
            "byteOffset" : 0
        },
        {
            "buffer" : 0,
            "byteLength" : 12504,
            "byteOffset" : 12504
        },
        {
            "buffer" : 0,
            "byteLength" : 8336,
            "byteOffset" : 25008
        },
        {
            "buffer" : 0,
            "byteLength" : 6024,
            "byteOffset" : 33344
        }
    ],
    "samplers" : [
        {
            "magFilter" : 9729,
            "minFilter" : 9987
        }
    ],
    "buffers" : [
        {
            "byteLength" : 39368,
            "uri" : "car.bin"
        }
    ]
}
