{
    "asset" : {
        "generator" : "Khronos glTF Blender I/O v1.7.33",
        "version" : "2.0"
    },
    "scene" : 0,
    "scenes" : [
        {
            "name" : "Scene",
            "nodes" : [
                0
            ]
        }
    ],
    "nodes" : [
        {
            "mesh" : 0,
            "name" : "Boutique"
        }
    ],
    "materials" : [
        {
            "doubleSided" : true,
            "name" : "City_Material",
            "pbrMetallicRoughness" : {
                "baseColorTexture" : {
                    "index" : 0
                },
                "metallicFactor" : 0,
                "roughnessFactor" : 0.5
            }
        }
    ],
    "meshes" : [
        {
            "name" : "Cube.003",
            "primitives" : [
                {
                    "attributes" : {
                        "POSITION" : 0,
                        "NORMAL" : 1,
                        "TEXCOORD_0" : 2
                    },
                    "indices" : 3,
                    "material" : 0
                }
            ]
        }
    ],
    "textures" : [
        {
            "sampler" : 0,
            "source" : 0
        }
    ],
    "images" : [
        {
            "mimeType" : "image/png",
            "name" : "ExteriorTexture",
            "uri" : "ExteriorTexture.png"
        }
    ],
    "accessors" : [
        {
            "bufferView" : 0,
            "componentType" : 5126,
            "count" : 2899,
            "max" : [
                50.27458953857422,
                46.64371871948242,
                37.30122375488281
            ],
            "min" : [
                -40.89250564575195,
                -0.4131837785243988,
                -23.155624389648438
            ],
            "type" : "VEC3"
        },
        {
            "bufferView" : 1,
            "componentType" : 5126,
            "count" : 2899,
            "type" : "VEC3"
        },
        {
            "bufferView" : 2,
            "componentType" : 5126,
            "count" : 2899,
            "type" : "VEC2"
        },
        {
            "bufferView" : 3,
            "componentType" : 5123,
            "count" : 4608,
            "type" : "SCALAR"
        }
    ],
    "bufferViews" : [
        {
            "buffer" : 0,
            "byteLength" : 34788,
            "byteOffset" : 0
        },
        {
            "buffer" : 0,
            "byteLength" : 34788,
            "byteOffset" : 34788
        },
        {
            "buffer" : 0,
            "byteLength" : 23192,
            "byteOffset" : 69576
        },
        {
            "buffer" : 0,
            "byteLength" : 9216,
            "byteOffset" : 92768
        }
    ],
    "samplers" : [
        {
            "magFilter" : 9729,
            "minFilter" : 9987
        }
    ],
    "buffers" : [
        {
            "byteLength" : 101984,
            "uri" : "cityMesh.bin"
        }
    ]
}
