{
    "asset" : {
        "generator" : "Khronos glTF Blender I/O v1.7.33",
        "version" : "2.0"
    },
    "scene" : 0,
    "scenes" : [
        {
            "name" : "Scene",
            "nodes" : [
                0
            ]
        }
    ],
    "nodes" : [
        {
            "mesh" : 0,
            "name" : "Fridge"
        }
    ],
    "materials" : [
        {
            "doubleSided" : true,
            "name" : "Material.002",
            "pbrMetallicRoughness" : {
                "metallicFactor" : 0,
                "roughnessFactor" : 0.4000000059604645
            }
        }
    ],
    "meshes" : [
        {
            "extras" : {
                "targetNames" : [
                    "Closed",
                    "Open"
                ]
            },
            "name" : "Cube.011",
            "primitives" : [
                {
                    "attributes" : {
                        "POSITION" : 0,
                        "NORMAL" : 1,
                        "TEXCOORD_0" : 2
                    },
                    "indices" : 3,
                    "material" : 0,
                    "targets" : [
                        {
                            "POSITION" : 4,
                            "NORMAL" : 5
                        },
                        {
                            "POSITION" : 6,
                            "NORMAL" : 7
                        }
                    ]
                }
            ],
            "weights" : [
                0,
                0
            ]
        }
    ],
    "accessors" : [
        {
            "bufferView" : 0,
            "componentType" : 5126,
            "count" : 984,
            "max" : [
                0.6513269543647766,
                2.934307098388672,
                0.7249999642372131
            ],
            "min" : [
                -0.660308837890625,
                -5.960464477539063e-08,
                -0.5999999642372131
            ],
            "type" : "VEC3"
        },
        {
            "bufferView" : 1,
            "componentType" : 5126,
            "count" : 984,
            "type" : "VEC3"
        },
        {
            "bufferView" : 2,
            "componentType" : 5126,
            "count" : 984,
            "type" : "VEC2"
        },
        {
            "bufferView" : 3,
            "componentType" : 5123,
            "count" : 1482,
            "type" : "SCALAR"
        },
        {
            "bufferView" : 4,
            "componentType" : 5126,
            "count" : 984,
            "max" : [
                0,
                0,
                0
            ],
            "min" : [
                0,
                0,
                0
            ],
            "type" : "VEC3"
        },
        {
            "bufferView" : 5,
            "componentType" : 5126,
            "count" : 984,
            "type" : "VEC3"
        },
        {
            "bufferView" : 6,
            "componentType" : 5126,
            "count" : 984,
            "max" : [
                0.10627663135528564,
                0,
                0.22640419006347656
            ],
            "min" : [
                -0.11132249236106873,
                0,
                -0.005247890949249268
            ],
            "type" : "VEC3"
        },
        {
            "bufferView" : 7,
            "componentType" : 5126,
            "count" : 984,
            "type" : "VEC3"
        }
    ],
    "bufferViews" : [
        {
            "buffer" : 0,
            "byteLength" : 11808,
            "byteOffset" : 0
        },
        {
            "buffer" : 0,
            "byteLength" : 11808,
            "byteOffset" : 11808
        },
        {
            "buffer" : 0,
            "byteLength" : 7872,
            "byteOffset" : 23616
        },
        {
            "buffer" : 0,
            "byteLength" : 2964,
            "byteOffset" : 31488
        },
        {
            "buffer" : 0,
            "byteLength" : 11808,
            "byteOffset" : 34452
        },
        {
            "buffer" : 0,
            "byteLength" : 11808,
            "byteOffset" : 46260
        },
        {
            "buffer" : 0,
            "byteLength" : 11808,
            "byteOffset" : 58068
        },
        {
            "buffer" : 0,
            "byteLength" : 11808,
            "byteOffset" : 69876
        }
    ],
    "buffers" : [
        {
            "byteLength" : 81684,
            "uri" : "closedFridge.bin"
        }
    ]
}
