# Blender v3.0.0 OBJ File: ''
# www.blender.org
o Flower_Object_Cylinder
v 0.013031 0.726124 0.061921
v -0.040889 0.749759 0.057448
v 0.072032 0.772042 0.033482
v 0.063114 0.869213 0.182861
v 0.131258 0.865626 0.160660
v -0.007773 0.872573 0.193503
v -0.005947 0.673259 0.002131
v 0.042810 0.850695 0.121192
v 0.080570 0.833308 0.264351
v 0.003306 0.705699 0.004843
v -0.017455 0.705081 0.011195
v 0.125210 0.864438 0.089857
v -0.033412 0.875566 0.121180
v 0.117182 0.843439 0.238168
v 0.037260 0.847432 0.257048
v -0.215035 0.881427 0.094999
v -0.172563 0.884760 0.165318
v -0.106160 0.883542 -0.016302
v -0.029287 0.888023 0.128076
v -0.012781 0.702852 -0.013377
v 0.000973 0.706127 0.009507
v -0.209602 0.873659 0.140150
v -0.085479 0.868441 0.061573
v -0.005551 0.673200 0.002118
v -0.166862 0.892771 0.029816
v -0.092978 0.898569 0.152144
v -0.134953 0.896674 0.093972
v -0.000145 0.783544 0.075369
v -0.058555 0.750748 -0.023004
v -0.040798 0.733506 0.033746
v -0.145497 0.865414 -0.190305
v -0.196191 0.882347 -0.127830
v -0.003492 0.866162 -0.126429
v -0.105339 0.893375 -0.007076
v 0.011935 0.696790 -0.011120
v -0.003909 0.706622 0.009106
v -0.186404 0.864008 -0.169018
v -0.071306 0.863561 -0.076806
v -0.005947 0.673259 0.002131
v -0.066966 0.874016 -0.168928
v -0.155154 0.903474 -0.060246
v -0.115528 0.889528 -0.118424
v -0.063837 0.788572 0.014745
v 0.009015 0.739937 -0.064332
v -0.039990 0.732078 -0.031220
v 0.143538 0.822165 -0.218334
v 0.068771 0.840818 -0.247001
v 0.133696 0.847140 -0.064953
v -0.016744 0.881017 -0.127869
v 0.019143 0.699871 0.013760
v -0.005202 0.706208 0.004451
v 0.109232 0.818739 -0.248992
v 0.062399 0.843174 -0.108728
v -0.005947 0.673259 0.002131
v 0.151747 0.842311 -0.139436
v 0.021683 0.874761 -0.189307
v 0.088793 0.858317 -0.169934
v -0.030440 0.785194 -0.064903
v 0.070369 0.731902 -0.013428
v 0.016088 0.723734 -0.034337
v 0.266968 0.809358 0.050868
v 0.270090 0.815436 -0.031066
v 0.121750 0.851974 0.087496
v 0.131346 0.860191 -0.076036
v -0.002251 0.703234 0.028380
v -0.001118 0.706308 0.001701
v 0.283873 0.798152 0.009429
v 0.137376 0.834482 0.009547
v -0.005947 0.673259 0.002131
v 0.197326 0.840019 0.080999
v 0.202757 0.850593 -0.061533
v 0.205942 0.844638 0.009909
v 0.051424 0.773381 -0.051143
v 0.042945 0.737480 0.062476
v 0.057657 0.718484 0.009807
v -0.011435 0.682717 0.009150
v -0.011435 0.682717 0.009150
v -0.011435 0.682717 0.009150
v -0.004464 0.000000 0.006018
v -0.004464 0.000000 0.006018
v -0.004464 0.000000 0.006018
v -0.011211 0.682498 -0.003832
v -0.011211 0.682498 -0.003832
v -0.011211 0.682498 -0.003832
v -0.004464 0.000000 -0.006969
v -0.004464 0.000000 -0.006969
v -0.004464 0.000000 -0.006969
v 0.001411 0.681306 0.009414
v 0.001411 0.681306 0.009414
v 0.001411 0.681306 0.009414
v 0.008523 0.000000 0.006018
v 0.008523 0.000000 0.006018
v 0.008523 0.000000 0.006018
v 0.001635 0.681086 -0.003568
v 0.001635 0.681086 -0.003568
v 0.001635 0.681086 -0.003568
v 0.008523 0.000000 -0.006969
v 0.008523 0.000000 -0.006969
v 0.008523 0.000000 -0.006969
v -0.045543 0.000000 0.140166
v -0.045543 0.000000 0.140166
v -0.045543 0.000000 -0.140166
v -0.045543 0.000000 -0.140166
v 0.045543 0.000000 0.140166
v 0.045543 0.000000 0.140166
v 0.045543 0.000000 -0.140166
v 0.045543 0.000000 -0.140166
v -0.119232 0.000000 -0.086627
v -0.119232 0.000000 -0.086627
v -0.147379 0.000000 -0.000000
v -0.147379 0.000000 -0.000000
v -0.147379 0.000000 -0.000000
v -0.119232 0.000000 0.086627
v -0.119232 0.000000 0.086627
v 0.119232 0.000000 0.086627
v 0.119232 0.000000 0.086627
v 0.147379 0.000000 0.000000
v 0.147379 0.000000 0.000000
v 0.119232 0.000000 -0.086627
v 0.119232 0.000000 -0.086627
v -0.048699 0.329060 0.149881
v -0.048699 0.329060 0.149881
v -0.048699 0.329060 -0.149881
v -0.048699 0.329060 -0.149881
v 0.048699 0.329060 0.149881
v 0.048699 0.329060 0.149881
v 0.048699 0.329060 -0.149881
v 0.048699 0.329060 -0.149881
v -0.127497 0.329060 -0.092632
v -0.127497 0.329060 -0.092632
v -0.157595 0.329060 -0.000000
v -0.157595 0.329060 -0.000000
v -0.127497 0.329060 0.092632
v -0.127497 0.329060 0.092632
v 0.127497 0.329060 0.092632
v 0.127497 0.329060 0.092632
v 0.157595 0.329060 0.000000
v 0.157595 0.329060 0.000000
v 0.127497 0.329060 -0.092632
v 0.127497 0.329060 -0.092632
v -0.164272 0.329060 0.119350
v -0.164272 0.329060 0.119350
v -0.062746 0.329060 0.193113
v -0.062746 0.329060 0.193113
v 0.062746 0.329060 -0.193113
v 0.062746 0.329060 -0.193113
v -0.062746 0.329060 -0.193113
v -0.062746 0.329060 -0.193113
v 0.164272 0.329060 -0.119350
v 0.164272 0.329060 -0.119350
v 0.062746 0.329060 0.193113
v 0.062746 0.329060 0.193113
v -0.164272 0.329060 -0.119350
v -0.164272 0.329060 -0.119350
v -0.203051 0.329060 -0.000000
v -0.203051 0.329060 -0.000000
v -0.203051 0.329060 -0.000000
v 0.164272 0.329060 0.119350
v 0.164272 0.329060 0.119350
v 0.203051 0.329060 0.000000
v 0.203051 0.329060 0.000000
v 0.127497 0.266830 -0.092632
v 0.127497 0.266830 -0.092632
v -0.127497 0.266830 -0.092632
v -0.127497 0.266830 -0.092632
v 0.157595 0.266830 0.000000
v 0.157595 0.266830 0.000000
v -0.157595 0.266830 -0.000000
v -0.157595 0.266830 -0.000000
v 0.127497 0.266830 0.092632
v 0.127497 0.266830 0.092632
v -0.127497 0.266830 0.092632
v -0.127497 0.266830 0.092632
v -0.048699 0.266830 0.149881
v -0.048699 0.266830 0.149881
v 0.048699 0.266830 -0.149881
v 0.048699 0.266830 -0.149881
v -0.048699 0.266830 -0.149881
v -0.048699 0.266830 -0.149881
v 0.048699 0.266830 0.149881
v 0.048699 0.266830 0.149881
v -0.021530 0.488414 0.008269
v -0.021530 0.488414 0.008269
v -0.021530 0.488414 0.008269
v -0.021530 0.488414 0.008269
v -0.008643 0.487400 0.008459
v -0.008643 0.487400 0.008459
v -0.008643 0.487400 0.008459
v -0.008643 0.487400 0.008459
v -0.008483 0.487242 -0.004525
v -0.008483 0.487242 -0.004525
v -0.008483 0.487242 -0.004525
v -0.008483 0.487242 -0.004525
v -0.021369 0.488256 -0.004715
v -0.021369 0.488256 -0.004715
v -0.021369 0.488256 -0.004715
v -0.021369 0.488256 -0.004715
vt 0.675172 0.085564
vt 0.727167 0.067168
vt 0.745211 0.135703
vt 0.678919 0.144029
vt 0.780923 0.054717
vt 0.808971 0.106049
vt 0.766038 0.236444
vt 0.808971 0.201527
vt 0.799194 0.267746
vt 0.779902 0.292778
vt 0.681814 0.023944
vt 0.707655 0.000275
vt 0.717096 0.227450
vt 0.742170 0.006335
vt 0.752964 0.280164
vt 0.400571 0.706469
vt 0.454276 0.693994
vt 0.482321 0.745276
vt 0.418657 0.774914
vt 0.440429 0.875927
vt 0.482321 0.840615
vt 0.473323 0.906841
vt 0.450887 0.931726
vt 0.390691 0.866670
vt 0.426992 0.919927
vt 0.348624 0.724895
vt 0.352424 0.783321
vt 0.355217 0.663309
vt 0.381024 0.639637
vt 0.415520 0.645670
vt 0.861338 0.066947
vt 0.914918 0.054455
vt 0.942928 0.105615
vt 0.879449 0.135188
vt 0.901502 0.237284
vt 0.942928 0.200685
vt 0.934915 0.267675
vt 0.911532 0.290203
vt 0.851733 0.226791
vt 0.887960 0.281743
vt 0.809520 0.085395
vt 0.813395 0.143694
vt 0.816035 0.023924
vt 0.841767 0.000275
vt 0.876198 0.006262
vt 0.918216 0.635759
vt 0.971741 0.623275
vt 0.999725 0.674382
vt 0.936312 0.703918
vt 0.957689 0.806573
vt 0.999725 0.769355
vt 0.991455 0.837879
vt 0.970981 0.858071
vt 0.908658 0.795408
vt 0.942755 0.849230
vt 0.866457 0.654197
vt 0.870343 0.712432
vt 0.872954 0.592788
vt 0.898656 0.569159
vt 0.933053 0.575135
vt 0.534738 0.706373
vt 0.588371 0.693913
vt 0.616378 0.745125
vt 0.552792 0.774711
vt 0.573408 0.876555
vt 0.616378 0.840350
vt 0.607601 0.906740
vt 0.588783 0.930107
vt 0.524897 0.866284
vt 0.559555 0.919668
vt 0.482871 0.724779
vt 0.486680 0.783115
vt 0.489445 0.663279
vt 0.515214 0.639637
vt 0.549662 0.645657
vt 0.979172 0.003204
vt 0.979213 0.009908
vt 0.972510 0.009950
vt 0.972468 0.003246
vt 0.985917 0.285903
vt 0.985917 0.393958
vt 0.979213 0.394000
vt 0.979213 0.285945
vt 0.979213 0.394000
vt 0.979255 0.400704
vt 0.972551 0.400745
vt 0.972510 0.394042
vt 0.979213 0.285945
vt 0.979213 0.394000
vt 0.972510 0.394042
vt 0.972510 0.285986
vt 0.972510 0.285986
vt 0.972510 0.394042
vt 0.965806 0.394083
vt 0.965806 0.286028
vt 0.965806 0.286028
vt 0.965806 0.394083
vt 0.959103 0.394125
vt 0.959103 0.286070
vt 0.805848 0.593909
vt 0.630031 0.651035
vt 0.671536 0.593909
vt 0.738692 0.572089
vt 0.805848 0.778773
vt 0.738692 0.800594
vt 0.671536 0.778773
vt 0.847353 0.721647
vt 0.630031 0.721647
vt 0.847353 0.651035
vt 0.605789 0.296750
vt 0.576159 0.248406
vt 0.614310 0.195639
vt 0.667787 0.216206
vt 0.509660 0.323717
vt 0.511133 0.266155
vt 0.507454 0.000275
vt 0.505375 0.058531
vt 0.441272 0.080843
vt 0.409300 0.032365
vt 0.348624 0.115337
vt 0.402628 0.135587
vt 0.404169 0.201382
vt 0.349214 0.217605
vt 0.316465 0.191006
vt 0.079451 0.087268
vt 0.123002 0.000275
vt 0.348074 0.127864
vt 0.273517 0.325344
vt 0.020281 0.272351
vt 0.045089 0.178282
vt 0.291524 0.257067
vt 0.262636 0.395112
vt 0.005290 0.368474
vt 0.316465 0.740255
vt 0.079451 0.843993
vt 0.045089 0.752978
vt 0.291524 0.674194
vt 0.020281 0.658909
vt 0.273517 0.605917
vt 0.258996 0.465630
vt 0.000275 0.465630
vt 0.348074 0.803397
vt 0.123001 0.930986
vt 0.005290 0.562786
vt 0.262636 0.536148
vt 0.498330 0.603849
vt 0.498330 0.639088
vt 0.405807 0.609025
vt 0.426519 0.580516
vt 0.570141 0.382838
vt 0.590854 0.354329
vt 0.648037 0.433034
vt 0.614522 0.443924
vt 0.498330 0.359505
vt 0.498330 0.324266
vt 0.348624 0.530320
vt 0.382138 0.519430
vt 0.648037 0.530320
vt 0.614522 0.519430
vt 0.590854 0.609025
vt 0.570141 0.580516
vt 0.348624 0.433034
vt 0.382138 0.443924
vt 0.405806 0.354329
vt 0.426519 0.382838
vt 0.697134 0.541944
vt 0.652753 0.480858
vt 0.652753 0.405351
vt 0.697134 0.344266
vt 0.885137 0.480858
vt 0.840756 0.541944
vt 0.840756 0.344266
vt 0.885137 0.405352
vt 0.768945 0.565276
vt 0.768945 0.320933
vt 0.606125 0.031145
vt 0.570632 0.077270
vt 0.411694 0.298115
vt 0.445233 0.252033
vt 0.612249 0.129845
vt 0.667787 0.113736
vt 0.965806 0.009991
vt 0.965806 0.286028
vt 0.959103 0.286070
vt 0.959103 0.010033
vt 0.972510 0.009950
vt 0.972510 0.285986
vt 0.965806 0.286028
vt 0.965806 0.009991
vt 0.979213 0.009908
vt 0.979213 0.285945
vt 0.972510 0.285986
vt 0.972510 0.009950
vt 0.985917 0.009866
vt 0.985917 0.285903
vt 0.979213 0.285945
vt 0.979213 0.009908
vn 0.1706 0.9851 0.0217
vn 0.0806 0.9908 0.1090
vn -0.0787 0.8406 -0.5360
vn 0.2008 0.7624 -0.6151
vn -0.0321 0.9980 0.0542
vn -0.3309 0.8462 -0.4176
vn -0.1933 0.7258 -0.6601
vn -0.5890 0.5909 -0.5513
vn -0.7660 0.6355 -0.0969
vn -0.1428 0.8720 -0.4681
vn 0.1519 0.9328 0.3268
vn 0.1249 0.9345 0.3333
vn 0.3077 0.5099 -0.8033
vn 0.0986 0.9354 0.3397
vn 0.5066 0.6450 -0.5721
vn 0.0067 0.9990 -0.0438
vn 0.0277 0.9847 -0.1719
vn 0.3750 0.7419 -0.5559
vn 0.5483 0.7559 -0.3577
vn 0.5861 0.6119 -0.5311
vn 0.4178 0.4577 -0.7848
vn -0.1159 0.5534 -0.8248
vn 0.5344 0.7479 -0.3939
vn 0.8972 0.4335 -0.0838
vn 0.8061 0.5833 0.0998
vn 0.1153 0.9932 0.0175
vn 0.7000 0.7029 -0.1258
vn -0.1849 0.9779 0.0976
vn -0.1994 0.9772 0.0733
vn -0.2136 0.9756 0.0504
vn 0.1210 0.9803 -0.1560
vn 0.2465 0.9530 -0.1762
vn 0.7249 0.6851 0.0712
vn 0.5889 0.7564 0.2847
vn 0.7332 0.5981 0.3234
vn 0.9240 0.3756 0.0717
vn 0.7888 0.4428 -0.4263
vn 0.6039 0.7527 0.2623
vn 0.3955 0.5131 0.7618
vn 0.1806 0.6738 0.7166
vn 0.1014 0.9941 -0.0384
vn 0.4091 0.7549 0.5126
vn -0.0790 0.9546 -0.2873
vn -0.0619 0.9492 -0.3085
vn -0.0456 0.9432 -0.3291
vn 0.2658 0.9598 -0.0903
vn 0.3272 0.9445 0.0282
vn 0.1998 0.7930 0.5755
vn -0.0011 0.8504 0.5261
vn 0.0071 0.7029 0.7113
vn 0.1676 0.5301 0.8312
vn 0.6520 0.4895 0.5790
vn 0.0090 0.7980 0.6026
vn -0.4505 0.6405 0.6219
vn -0.5018 0.7618 0.4098
vn 0.1502 0.9862 -0.0693
vn -0.2183 0.8647 0.4524
vn 0.3143 0.8960 -0.3137
vn 0.3398 0.8900 -0.3041
vn 0.3640 0.8834 -0.2953
vn 0.2527 0.9647 0.0748
vn 0.1674 0.9709 0.1711
vn -0.3848 0.8667 0.3174
vn -0.4294 0.9015 0.0538
vn -0.6026 0.7905 0.1097
vn -0.6128 0.6097 0.5028
vn -0.2254 0.5552 0.8006
vn -0.4034 0.9085 0.1092
vn -0.6306 0.6551 -0.4161
vn -0.3595 0.7696 -0.5277
vn 0.1936 0.9806 -0.0315
vn -0.4347 0.8685 -0.2382
vn 0.4713 0.8802 0.0559
vn 0.4703 0.8785 0.0839
vn 0.4695 0.8760 0.1106
vn 0.0000 -1.0000 0.0000
vn -0.0180 -0.0038 0.9998
vn -0.0181 -0.0038 0.9998
vn 0.1095 0.9939 -0.0149
vn -0.9985 0.0521 -0.0156
vn -0.9985 0.0521 -0.0155
vn 0.0180 0.0038 -0.9998
vn 0.9985 -0.0520 0.0156
vn 0.9985 -0.0520 0.0155
vn -0.5737 -0.7050 0.4169
vn 0.5738 -0.7050 0.4168
vn 0.2192 -0.7050 0.6745
vn -0.2192 -0.7050 0.6745
vn -0.2192 -0.7050 -0.6745
vn 0.2192 -0.7050 -0.6745
vn 0.5737 -0.7050 -0.4169
vn -0.5738 -0.7050 -0.4168
vn 0.7092 -0.7050 0.0000
vn -0.7092 -0.7050 -0.0000
vn 0.1919 0.7837 0.5907
vn 0.2366 0.6437 0.7278
vn -0.2363 0.6437 0.7279
vn -0.1919 0.7837 0.5907
vn 0.5025 0.7837 0.3650
vn 0.6191 0.6437 0.4498
vn -0.5025 0.7837 -0.3650
vn -0.6191 0.6437 -0.4498
vn -0.2364 0.6437 -0.7278
vn -0.1919 0.7837 -0.5907
vn 0.1919 0.7837 -0.5907
vn 0.2364 0.6437 -0.7278
vn 0.6191 0.6437 -0.4498
vn 0.5026 0.7837 -0.3650
vn -0.5738 -0.7050 0.4168
vn -0.6591 0.5799 0.4788
vn -0.8147 0.5799 -0.0000
vn 0.2192 -0.7050 0.6744
vn 0.2517 0.5799 0.7748
vn -0.2517 0.5799 0.7748
vn -0.2192 -0.7050 0.6744
vn 0.5737 -0.7050 0.4169
vn 0.6591 0.5799 0.4788
vn -0.5737 -0.7050 -0.4169
vn -0.6591 0.5799 -0.4788
vn -0.2517 0.5799 -0.7748
vn -0.2192 -0.7050 -0.6744
vn 0.2517 0.5799 -0.7748
vn 0.2192 -0.7050 -0.6744
vn 0.8147 0.5799 0.0000
vn 0.6591 0.5799 -0.4788
vn 0.5738 -0.7050 -0.4168
vn 0.5025 0.7837 -0.3651
vn -0.6592 0.5799 0.4788
vn -0.2517 0.5799 0.7749
vn 0.1919 0.7837 -0.5908
vn -0.1919 0.7837 0.5908
vn 0.2517 0.5799 -0.7749
vn -0.2517 0.5799 -0.7749
vn 0.1919 0.7837 0.5908
vn -0.5025 0.7837 0.3651
vn 0.6592 0.5799 -0.4788
vn 0.2517 0.5799 0.7749
vn -0.1919 0.7837 -0.5908
vn -0.6592 0.5799 -0.4788
vn 0.5025 0.7837 0.3651
vn 0.6212 0.7837 -0.0000
vn 0.6592 0.5799 0.4788
vn -0.5025 0.7837 -0.3651
vn -0.6212 0.7837 0.0000
vn 0.2365 0.6437 -0.7278
vn -0.2365 0.6437 -0.7278
vn 0.2365 0.6437 0.7278
vn -0.6191 0.6437 0.4498
vn -0.2365 0.6437 0.7278
vn 0.7653 0.6437 0.0000
vn -0.7653 0.6437 -0.0000
vn -0.6211 0.7837 0.0000
vn -0.7652 0.6437 0.0000
vn 0.6211 0.7837 -0.0000
vn 0.7652 0.6437 -0.0000
vn -0.5025 0.7837 0.3650
vn 0.9994 0.0350 0.0060
vn 0.0075 0.0051 -1.0000
vn 0.0076 0.0051 -1.0000
vn -0.9994 -0.0347 -0.0060
vn -0.0075 -0.0051 1.0000
vn -0.0076 -0.0051 1.0000
s 1
f 6/1/1 4/2/2 8/3/3
f 6/1/1 8/3/3 13/4/4
f 4/2/2 5/5/5 12/6/6
f 4/2/2 12/6/6 8/3/3
f 1/7/7 3/8/8 10/9/9
f 1/7/7 10/9/9 7/10/10
f 15/11/11 9/12/12 4/2/2
f 15/11/11 4/2/2 6/1/1
f 8/3/3 12/6/6 3/8/8
f 8/3/3 3/8/8 1/7/7
f 13/4/4 8/3/3 1/7/7
f 13/4/4 1/7/7 2/13/13
f 9/12/12 14/14/14 5/5/5
f 9/12/12 5/5/5 4/2/2
f 2/13/13 1/7/7 7/10/10
f 2/13/13 7/10/10 11/15/15
f 27/16/16 26/17/17 19/18/18
f 27/16/16 19/18/18 23/19/19
f 30/20/20 28/21/21 21/22/22
f 30/20/20 21/22/22 24/23/23
f 29/24/24 30/20/20 24/23/23
f 29/24/24 24/23/23 20/25/25
f 25/26/26 27/16/16 23/19/19
f 25/26/26 23/19/19 18/27/27
f 16/28/28 22/29/29 27/16/16
f 16/28/28 27/16/16 25/26/26
f 22/29/29 17/30/30 26/17/17
f 22/29/29 26/17/17 27/16/16
f 18/27/27 23/19/19 30/20/20
f 18/27/27 30/20/20 29/24/24
f 23/19/19 19/18/18 28/21/21
f 23/19/19 28/21/21 30/20/20
f 42/31/31 41/32/32 34/33/33
f 42/31/31 34/33/33 38/34/34
f 45/35/35 43/36/36 36/37/37
f 45/35/35 36/37/37 39/38/38
f 44/39/39 45/35/35 39/38/38
f 44/39/39 39/38/38 35/40/40
f 40/41/41 42/31/31 38/34/34
f 40/41/41 38/34/34 33/42/42
f 31/43/43 37/44/44 42/31/31
f 31/43/43 42/31/31 40/41/41
f 37/44/44 32/45/45 41/32/32
f 37/44/44 41/32/32 42/31/31
f 33/42/42 38/34/34 45/35/35
f 33/42/42 45/35/35 44/39/39
f 38/34/34 34/33/33 43/36/36
f 38/34/34 43/36/36 45/35/35
f 57/46/46 56/47/47 49/48/48
f 57/46/46 49/48/48 53/49/49
f 60/50/50 58/51/51 51/52/52
f 60/50/50 51/52/52 54/53/53
f 59/54/54 60/50/50 54/53/53
f 59/54/54 54/53/53 50/55/55
f 55/56/56 57/46/46 53/49/49
f 55/56/56 53/49/49 48/57/57
f 46/58/58 52/59/59 57/46/46
f 46/58/58 57/46/46 55/56/56
f 52/59/59 47/60/60 56/47/47
f 52/59/59 56/47/47 57/46/46
f 48/57/57 53/49/49 60/50/50
f 48/57/57 60/50/50 59/54/54
f 53/49/49 49/48/48 58/51/51
f 53/49/49 58/51/51 60/50/50
f 72/61/61 71/62/62 64/63/63
f 72/61/61 64/63/63 68/64/64
f 75/65/65 73/66/66 66/67/67
f 75/65/65 66/67/67 69/68/68
f 74/69/69 75/65/65 69/68/68
f 74/69/69 69/68/68 65/70/70
f 70/71/71 72/61/61 68/64/64
f 70/71/71 68/64/64 63/72/72
f 61/73/73 67/74/74 72/61/61
f 61/73/73 72/61/61 70/71/71
f 67/74/74 62/75/75 71/62/62
f 67/74/74 71/62/62 72/61/61
f 63/72/72 68/64/64 75/65/65
f 63/72/72 75/65/65 74/69/69
f 68/64/64 64/63/63 73/66/66
f 68/64/64 73/66/66 75/65/65
s off
f 92/76/76 81/77/76 86/78/76
f 92/76/76 86/78/76 97/79/76
s 1
f 186/80/77 88/81/77 77/82/78
f 186/80/77 77/82/78 184/83/77
s off
f 78/84/79 89/85/79 95/86/79
f 78/84/79 95/86/79 84/87/79
s 1
f 183/88/80 76/89/80 82/90/81
f 183/88/80 82/90/81 195/91/81
f 197/92/82 83/93/82 94/94/82
f 197/92/82 94/94/82 191/95/82
f 192/96/83 96/97/83 90/98/84
f 192/96/83 90/98/84 188/99/84
f 114/100/85 116/101/86 105/102/87
f 114/100/85 105/102/87 101/103/88
f 103/104/89 107/105/90 120/106/91
f 103/104/89 120/106/91 109/107/92
f 109/107/92 120/106/91 118/108/93
f 109/107/92 118/108/93 112/109/94
f 112/109/94 118/108/93 116/101/86
f 112/109/94 116/101/86 114/100/85
f 123/110/95 178/111/96 176/112/97
f 123/110/95 176/112/97 128/113/98
f 129/114/99 164/115/100 178/111/96
f 129/114/99 178/111/96 123/110/95
f 136/116/101 170/117/102 180/118/103
f 136/116/101 180/118/103 126/119/104
f 121/120/105 174/121/106 172/122/107
f 121/120/105 172/122/107 133/123/108
f 113/124/109 141/125/110 156/126/111
f 113/124/109 156/126/111 111/127/94
f 104/128/112 151/129/113 143/130/114
f 104/128/112 143/130/114 100/131/115
f 100/131/115 143/130/114 141/125/110
f 100/131/115 141/125/110 113/124/109
f 115/132/116 158/133/117 151/129/113
f 115/132/116 151/129/113 104/128/112
f 108/134/118 153/135/119 147/136/120
f 108/134/118 147/136/120 102/137/121
f 102/137/121 147/136/120 145/138/122
f 102/137/121 145/138/122 106/139/123
f 117/140/93 160/141/124 158/133/117
f 117/140/93 158/133/117 115/132/116
f 110/142/94 155/143/111 153/135/119
f 110/142/94 153/135/119 108/134/118
f 106/139/123 145/138/122 149/144/125
f 106/139/123 149/144/125 119/145/126
f 119/145/126 149/144/125 160/141/124
f 119/145/126 160/141/124 117/140/93
f 134/146/127 142/147/128 144/148/129
f 134/146/127 144/148/129 122/149/130
f 127/150/131 146/151/132 148/152/133
f 127/150/131 148/152/133 124/153/134
f 139/154/135 150/155/136 146/151/132
f 139/154/135 146/151/132 127/150/131
f 122/149/130 144/148/129 152/156/137
f 122/149/130 152/156/137 125/157/138
f 124/153/134 148/152/133 154/158/139
f 124/153/134 154/158/139 130/159/140
f 130/159/140 154/158/139 157/160/111
f 130/159/140 157/160/111 132/161/141
f 132/161/141 157/160/111 142/147/128
f 132/161/141 142/147/128 134/146/127
f 125/157/138 152/156/137 159/162/142
f 125/157/138 159/162/142 135/163/143
f 135/163/143 159/162/142 161/164/124
f 135/163/143 161/164/124 137/165/144
f 137/165/144 161/164/124 150/155/136
f 137/165/144 150/155/136 139/154/135
f 173/166/107 175/167/145 181/168/146
f 173/166/107 181/168/146 171/169/102
f 179/170/147 165/171/100 163/172/148
f 179/170/147 163/172/148 177/173/149
f 165/171/100 169/174/150 167/175/151
f 165/171/100 167/175/151 163/172/148
f 169/174/150 173/166/107 171/169/102
f 169/174/150 171/169/102 167/175/151
f 138/176/152 166/177/153 170/117/102
f 138/176/152 170/117/102 136/116/101
f 131/178/154 168/179/155 164/115/100
f 131/178/154 164/115/100 129/114/99
f 128/113/98 176/112/97 162/180/148
f 128/113/98 162/180/148 140/181/156
f 140/181/156 162/180/148 166/177/153
f 140/181/156 166/177/153 138/176/152
f 133/123/108 172/122/107 168/179/155
f 133/123/108 168/179/155 131/178/154
f 126/119/104 180/118/103 174/121/106
f 126/119/104 174/121/106 121/120/105
f 99/182/157 193/183/157 189/184/157
f 99/182/157 189/184/157 93/185/157
f 87/186/158 196/187/158 190/188/158
f 87/186/158 190/188/158 98/189/159
f 79/190/160 182/191/160 194/192/160
f 79/190/160 194/192/160 85/193/160
f 91/194/161 187/195/162 185/196/161
f 91/194/161 185/196/161 80/197/162
