# Blender v3.0.0 OBJ File: ''
# www.blender.org
o Flower_Object_Cylinder.001
v 0.022070 0.720815 0.064044
v -0.031029 0.743707 0.059653
v 0.081491 0.760513 0.035397
v 0.078242 0.845870 0.191511
v 0.147375 0.845386 0.170429
v 0.006679 0.857613 0.202242
v 0.002529 0.673131 0.004180
v 0.056239 0.834215 0.125642
v 0.087662 0.795969 0.258546
v 0.012174 0.704294 0.006995
v -0.008600 0.703795 0.013330
v 0.140869 0.854197 0.094417
v -0.020935 0.868968 0.128327
v 0.125605 0.807151 0.237253
v 0.047330 0.814640 0.253294
v -0.197306 0.850597 0.094605
v -0.159710 0.852665 0.165522
v -0.096423 0.873656 -0.012484
v -0.016704 0.881508 0.136215
v -0.003938 0.701435 -0.011246
v 0.009843 0.704801 0.011659
v -0.193187 0.840649 0.138129
v -0.073862 0.849458 0.066442
v 0.002924 0.673071 0.004168
v -0.156229 0.875405 0.034375
v -0.084395 0.881034 0.161291
v -0.125159 0.872129 0.100395
v 0.010164 0.775478 0.076984
v -0.049008 0.744834 -0.020418
v -0.031615 0.729084 0.035938
v -0.129751 0.833985 -0.182037
v -0.182496 0.851926 -0.124059
v 0.007245 0.857517 -0.127630
v -0.095670 0.884299 -0.002974
v 0.020702 0.695328 -0.008989
v 0.004968 0.705353 0.011255
v -0.170158 0.832074 -0.162327
v -0.061979 0.843629 -0.073431
v 0.002529 0.673131 0.004180
v -0.056214 0.856607 -0.168516
v -0.148172 0.885221 -0.059169
v -0.107423 0.864057 -0.116313
v -0.052702 0.780291 0.017365
v 0.017999 0.734096 -0.061888
v -0.030788 0.727490 -0.028986
v 0.149276 0.787626 -0.208242
v 0.079766 0.808447 -0.243006
v 0.147170 0.836408 -0.065347
v -0.006138 0.871992 -0.128914
v 0.027922 0.697731 0.015904
v 0.003673 0.704958 0.006599
v 0.116596 0.783062 -0.238729
v 0.072211 0.825874 -0.109180
v 0.002529 0.673131 0.004180
v 0.163584 0.823084 -0.140069
v 0.035453 0.858353 -0.196600
v 0.100407 0.834494 -0.173757
v -0.020474 0.775525 -0.061466
v 0.079357 0.724525 -0.011280
v 0.025177 0.719621 -0.032129
v 0.269825 0.773979 0.051902
v 0.276679 0.778150 -0.027988
v 0.136854 0.842226 0.091208
v 0.145057 0.849499 -0.077036
v 0.006565 0.701615 0.030520
v 0.007761 0.705016 0.003852
v 0.285400 0.760199 0.012232
v 0.150196 0.813521 0.010317
v 0.002529 0.673131 0.004180
v 0.212651 0.819340 0.082173
v 0.220987 0.828318 -0.061520
v 0.222017 0.816471 0.010333
v 0.060380 0.763966 -0.048569
v 0.052139 0.730317 0.064311
v 0.066616 0.712287 0.012018
v -0.002847 0.682421 0.011224
v -0.002847 0.682421 0.011224
v -0.002847 0.682421 0.011224
v -0.004464 0.000000 0.006018
v -0.004464 0.000000 0.006018
v -0.004464 0.000000 0.006018
v -0.002618 0.682112 -0.001759
v -0.002618 0.682112 -0.001759
v -0.002618 0.682112 -0.001759
v -0.004464 0.000000 -0.006969
v -0.004464 0.000000 -0.006969
v -0.004464 0.000000 -0.006969
v 0.009980 0.680846 0.011493
v 0.009980 0.680846 0.011493
v 0.009980 0.680846 0.011493
v 0.008523 0.000000 0.006018
v 0.008523 0.000000 0.006018
v 0.008523 0.000000 0.006018
v 0.010211 0.680641 -0.001489
v 0.010211 0.680641 -0.001489
v 0.010211 0.680641 -0.001489
v 0.008523 0.000000 -0.006969
v 0.008523 0.000000 -0.006969
v 0.008523 0.000000 -0.006969
v -0.045543 0.000000 0.140166
v -0.045543 0.000000 0.140166
v -0.045543 0.000000 -0.140166
v -0.045543 0.000000 -0.140166
v 0.045543 0.000000 0.140166
v 0.045543 0.000000 0.140166
v 0.045543 0.000000 -0.140166
v 0.045543 0.000000 -0.140166
v -0.119232 0.000000 -0.086627
v -0.119232 0.000000 -0.086627
v -0.147379 0.000000 0.000000
v -0.147379 0.000000 0.000000
v -0.147379 0.000000 0.000000
v -0.119232 0.000000 0.086627
v -0.119232 0.000000 0.086627
v 0.119232 0.000000 0.086627
v 0.119232 0.000000 0.086627
v 0.147379 0.000000 0.000000
v 0.147379 0.000000 0.000000
v 0.119232 0.000000 -0.086627
v 0.119232 0.000000 -0.086627
v -0.048699 0.329060 0.149881
v -0.048699 0.329060 0.149881
v -0.048699 0.329060 -0.149881
v -0.048699 0.329060 -0.149881
v 0.048699 0.329060 0.149881
v 0.048699 0.329060 0.149881
v 0.048699 0.329060 -0.149881
v 0.048699 0.329060 -0.149881
v -0.127497 0.329060 -0.092632
v -0.127497 0.329060 -0.092632
v -0.157595 0.329060 0.000000
v -0.157595 0.329060 0.000000
v -0.127497 0.329060 0.092632
v -0.127497 0.329060 0.092632
v 0.127497 0.329060 0.092632
v 0.127497 0.329060 0.092632
v 0.157595 0.329060 0.000000
v 0.157595 0.329060 0.000000
v 0.127497 0.329060 -0.092632
v 0.127497 0.329060 -0.092632
v -0.164272 0.329060 0.119350
v -0.164272 0.329060 0.119350
v -0.062746 0.329060 0.193113
v -0.062746 0.329060 0.193113
v 0.062746 0.329060 -0.193113
v 0.062746 0.329060 -0.193113
v -0.062746 0.329060 -0.193113
v -0.062746 0.329060 -0.193113
v 0.164272 0.329060 -0.119350
v 0.164272 0.329060 -0.119350
v 0.062746 0.329060 0.193113
v 0.062746 0.329060 0.193113
v -0.164272 0.329060 -0.119350
v -0.164272 0.329060 -0.119350
v -0.203051 0.329060 0.000000
v -0.203051 0.329060 0.000000
v -0.203051 0.329060 0.000000
v 0.164272 0.329060 0.119350
v 0.164272 0.329060 0.119350
v 0.203051 0.329060 0.000000
v 0.203051 0.329060 0.000000
v 0.127497 0.266830 -0.092632
v 0.127497 0.266830 -0.092632
v -0.127497 0.266830 -0.092632
v -0.127497 0.266830 -0.092632
v 0.157595 0.266830 0.000000
v 0.157595 0.266830 0.000000
v -0.157595 0.266830 0.000000
v -0.157595 0.266830 0.000000
v 0.127497 0.266830 0.092632
v 0.127497 0.266830 0.092632
v -0.127497 0.266830 0.092632
v -0.127497 0.266830 0.092632
v -0.048699 0.266830 0.149881
v -0.048699 0.266830 0.149881
v 0.048699 0.266830 -0.149881
v 0.048699 0.266830 -0.149881
v -0.048699 0.266830 -0.149881
v -0.048699 0.266830 -0.149881
v 0.048699 0.266830 0.149881
v 0.048699 0.266830 0.149881
v -0.017125 0.488414 0.008269
v -0.017125 0.488414 0.008269
v -0.017125 0.488414 0.008269
v -0.017125 0.488414 0.008269
v -0.004239 0.487400 0.008459
v -0.004239 0.487400 0.008459
v -0.004239 0.487400 0.008459
v -0.004239 0.487400 0.008459
v -0.004078 0.487242 -0.004525
v -0.004078 0.487242 -0.004525
v -0.004078 0.487242 -0.004525
v -0.004078 0.487242 -0.004525
v -0.016964 0.488256 -0.004715
v -0.016964 0.488256 -0.004715
v -0.016964 0.488256 -0.004715
v -0.016964 0.488256 -0.004715
vt 0.675172 0.085564
vt 0.727167 0.067168
vt 0.745211 0.135703
vt 0.678919 0.144029
vt 0.780923 0.054717
vt 0.808971 0.106049
vt 0.766038 0.236444
vt 0.808971 0.201527
vt 0.799194 0.267746
vt 0.779902 0.292778
vt 0.681814 0.023944
vt 0.707655 0.000275
vt 0.717096 0.227450
vt 0.742170 0.006335
vt 0.752964 0.280164
vt 0.400571 0.706469
vt 0.454276 0.693994
vt 0.482321 0.745276
vt 0.418657 0.774914
vt 0.440429 0.875927
vt 0.482321 0.840615
vt 0.473323 0.906841
vt 0.450887 0.931726
vt 0.390691 0.866670
vt 0.426992 0.919927
vt 0.348624 0.724895
vt 0.352424 0.783321
vt 0.355217 0.663309
vt 0.381024 0.639637
vt 0.415520 0.645670
vt 0.861338 0.066947
vt 0.914918 0.054455
vt 0.942928 0.105615
vt 0.879449 0.135188
vt 0.901502 0.237284
vt 0.942928 0.200685
vt 0.934915 0.267675
vt 0.911532 0.290203
vt 0.851733 0.226791
vt 0.887960 0.281743
vt 0.809520 0.085395
vt 0.813395 0.143694
vt 0.816035 0.023924
vt 0.841767 0.000275
vt 0.876198 0.006262
vt 0.918216 0.635759
vt 0.971741 0.623275
vt 0.999725 0.674382
vt 0.936312 0.703918
vt 0.957689 0.806573
vt 0.999725 0.769355
vt 0.991455 0.837879
vt 0.970981 0.858071
vt 0.908658 0.795408
vt 0.942755 0.849230
vt 0.866457 0.654197
vt 0.870343 0.712432
vt 0.872954 0.592788
vt 0.898656 0.569159
vt 0.933053 0.575135
vt 0.534738 0.706373
vt 0.588371 0.693913
vt 0.616378 0.745125
vt 0.552792 0.774711
vt 0.573408 0.876555
vt 0.616378 0.840350
vt 0.607601 0.906740
vt 0.588783 0.930107
vt 0.524897 0.866284
vt 0.559555 0.919668
vt 0.482871 0.724779
vt 0.486680 0.783115
vt 0.489445 0.663279
vt 0.515214 0.639637
vt 0.549662 0.645657
vt 0.979172 0.003204
vt 0.979213 0.009908
vt 0.972510 0.009950
vt 0.972468 0.003246
vt 0.985917 0.285903
vt 0.985917 0.393958
vt 0.979213 0.394000
vt 0.979213 0.285945
vt 0.979213 0.394000
vt 0.979255 0.400704
vt 0.972551 0.400745
vt 0.972510 0.394042
vt 0.979213 0.285945
vt 0.979213 0.394000
vt 0.972510 0.394042
vt 0.972510 0.285986
vt 0.972510 0.285986
vt 0.972510 0.394042
vt 0.965806 0.394083
vt 0.965806 0.286028
vt 0.965806 0.286028
vt 0.965806 0.394083
vt 0.959103 0.394125
vt 0.959103 0.286070
vt 0.805848 0.593909
vt 0.630031 0.651035
vt 0.671536 0.593909
vt 0.738692 0.572089
vt 0.805848 0.778773
vt 0.738692 0.800594
vt 0.671536 0.778773
vt 0.847353 0.721647
vt 0.630031 0.721647
vt 0.847353 0.651035
vt 0.605789 0.296750
vt 0.576159 0.248406
vt 0.614310 0.195639
vt 0.667787 0.216206
vt 0.509660 0.323717
vt 0.511133 0.266155
vt 0.507454 0.000275
vt 0.505375 0.058531
vt 0.441272 0.080843
vt 0.409300 0.032365
vt 0.348624 0.115337
vt 0.402628 0.135587
vt 0.404169 0.201382
vt 0.349214 0.217605
vt 0.316465 0.191006
vt 0.079451 0.087268
vt 0.123002 0.000275
vt 0.348074 0.127864
vt 0.273517 0.325344
vt 0.020281 0.272351
vt 0.045089 0.178282
vt 0.291524 0.257067
vt 0.262636 0.395112
vt 0.005290 0.368474
vt 0.316465 0.740255
vt 0.079451 0.843993
vt 0.045089 0.752978
vt 0.291524 0.674194
vt 0.020281 0.658909
vt 0.273517 0.605917
vt 0.258996 0.465630
vt 0.000275 0.465630
vt 0.348074 0.803397
vt 0.123001 0.930986
vt 0.005290 0.562786
vt 0.262636 0.536148
vt 0.498330 0.603849
vt 0.498330 0.639088
vt 0.405807 0.609025
vt 0.426519 0.580516
vt 0.570141 0.382838
vt 0.590854 0.354329
vt 0.648037 0.433034
vt 0.614522 0.443924
vt 0.498330 0.359505
vt 0.498330 0.324266
vt 0.348624 0.530320
vt 0.382138 0.519430
vt 0.648037 0.530320
vt 0.614522 0.519430
vt 0.590854 0.609025
vt 0.570141 0.580516
vt 0.348624 0.433034
vt 0.382138 0.443924
vt 0.405806 0.354329
vt 0.426519 0.382838
vt 0.697134 0.541944
vt 0.652753 0.480858
vt 0.652753 0.405351
vt 0.697134 0.344266
vt 0.885137 0.480858
vt 0.840756 0.541944
vt 0.840756 0.344266
vt 0.885137 0.405352
vt 0.768945 0.565276
vt 0.768945 0.320933
vt 0.606125 0.031145
vt 0.570632 0.077270
vt 0.411694 0.298115
vt 0.445233 0.252033
vt 0.612249 0.129845
vt 0.667787 0.113736
vt 0.965806 0.009991
vt 0.965806 0.286028
vt 0.959103 0.286070
vt 0.959103 0.010033
vt 0.972510 0.009950
vt 0.972510 0.285986
vt 0.965806 0.286028
vt 0.965806 0.009991
vt 0.979213 0.009908
vt 0.979213 0.285945
vt 0.972510 0.285986
vt 0.972510 0.009950
vt 0.985917 0.009866
vt 0.985917 0.285903
vt 0.979213 0.285945
vt 0.979213 0.009908
vn 0.2988 0.9443 0.1376
vn 0.1410 0.9493 0.2811
vn -0.0475 0.8719 -0.4874
vn 0.2792 0.7776 -0.5633
vn -0.0227 0.9763 0.2150
vn -0.3538 0.8800 -0.3168
vn -0.1590 0.7565 -0.6344
vn -0.5665 0.6452 -0.5126
vn -0.7336 0.6753 -0.0762
vn -0.1325 0.9004 -0.4145
vn 0.2321 0.8150 0.5310
vn 0.1809 0.8204 0.5425
vn 0.3189 0.5379 -0.7804
vn 0.1959 0.7929 0.5770
vn 0.5069 0.6662 -0.5471
vn -0.1101 0.9939 0.0047
vn -0.1242 0.9791 -0.1609
vn 0.2436 0.7843 -0.5705
vn 0.5138 0.7832 -0.3501
vn 0.5758 0.6326 -0.5180
vn 0.3797 0.4948 -0.7817
vn -0.1189 0.5802 -0.8057
vn 0.5027 0.7758 -0.3813
vn 0.8890 0.4512 -0.0781
vn 0.7883 0.6053 0.1103
vn 0.0649 0.9859 0.1543
vn 0.6806 0.7310 -0.0491
vn -0.2971 0.9365 0.1863
vn -0.3315 0.9344 0.1300
vn -0.3787 0.9012 0.2106
vn 0.0413 0.9716 -0.2331
vn 0.2151 0.9305 -0.2965
vn 0.7169 0.6959 -0.0434
vn 0.5718 0.7791 0.2571
vn 0.7248 0.6158 0.3090
vn 0.9174 0.3971 0.0264
vn 0.7805 0.4570 -0.4266
vn 0.6015 0.7674 0.2219
vn 0.3908 0.5381 0.7468
vn 0.1755 0.7015 0.6907
vn -0.0658 0.9974 -0.0303
vn 0.2992 0.8076 0.5082
vn -0.1852 0.9149 -0.3586
vn -0.1217 0.9051 -0.4074
vn -0.1863 0.8891 -0.4180
vn 0.3509 0.9088 -0.2257
vn 0.4455 0.8948 -0.0290
vn 0.2956 0.7896 0.5378
vn 0.0332 0.8812 0.4716
vn 0.0236 0.7284 0.6848
vn 0.2111 0.5643 0.7982
vn 0.6524 0.5043 0.5657
vn 0.0619 0.8085 0.5852
vn -0.4145 0.6745 0.6110
vn -0.4600 0.7992 0.3870
vn 0.1502 0.9626 -0.2255
vn -0.2250 0.9060 0.3585
vn 0.4073 0.7759 -0.4818
vn 0.4580 0.7710 -0.4425
vn 0.4653 0.7572 -0.4584
vn 0.4072 0.9093 0.0856
vn 0.2979 0.9249 0.2361
vn -0.2834 0.8694 0.4047
vn -0.3537 0.9338 0.0541
vn -0.5503 0.8283 0.1054
vn -0.5429 0.6548 0.5258
vn -0.1934 0.5802 0.7912
vn -0.3440 0.9282 0.1420
vn -0.5901 0.6952 -0.4104
vn -0.3027 0.8021 -0.5148
vn 0.3335 0.9345 -0.1244
vn -0.3314 0.8880 -0.3188
vn 0.6409 0.7661 0.0493
vn 0.6350 0.7652 0.1060
vn 0.6826 0.7268 0.0763
vn 0.0000 -1.0000 0.0000
vn -0.0189 -0.0141 0.9997
vn -0.0197 -0.0140 0.9997
vn -0.0188 -0.0141 0.9997
vn 0.1221 0.9924 -0.0135
vn 0.1143 0.9932 -0.0216
vn -0.9971 0.0738 -0.0159
vn -0.9971 0.0738 -0.0169
vn -0.9971 0.0739 -0.0168
vn -0.9971 0.0739 -0.0158
vn 0.0189 0.0142 -0.9997
vn 0.0196 0.0140 -0.9997
vn 0.0196 0.0139 -0.9997
vn 0.0188 0.0141 -0.9997
vn 0.9972 -0.0737 0.0158
vn 0.9971 -0.0738 0.0163
vn -0.5737 -0.7050 0.4169
vn 0.5738 -0.7050 0.4168
vn 0.2192 -0.7050 0.6745
vn -0.2192 -0.7050 0.6745
vn -0.2192 -0.7050 -0.6745
vn 0.2192 -0.7050 -0.6745
vn 0.5737 -0.7050 -0.4169
vn -0.5738 -0.7050 -0.4168
vn 0.7092 -0.7050 0.0000
vn -0.7092 -0.7050 -0.0000
vn 0.1919 0.7837 0.5907
vn 0.2364 0.6437 0.7278
vn -0.2364 0.6437 0.7278
vn -0.1919 0.7837 0.5907
vn 0.5025 0.7837 0.3650
vn 0.6191 0.6437 0.4498
vn -0.5025 0.7837 -0.3650
vn -0.6191 0.6437 -0.4498
vn -0.2366 0.6437 -0.7278
vn -0.1921 0.7837 -0.5907
vn 0.1918 0.7837 -0.5908
vn 0.2363 0.6437 -0.7279
vn 0.6191 0.6437 -0.4498
vn 0.5026 0.7837 -0.3650
vn -0.5738 -0.7050 0.4168
vn -0.6591 0.5799 0.4788
vn -0.8147 0.5799 -0.0000
vn 0.2192 -0.7050 0.6744
vn 0.2517 0.5799 0.7748
vn -0.2517 0.5799 0.7748
vn -0.2192 -0.7050 0.6744
vn 0.5737 -0.7050 0.4169
vn 0.6591 0.5799 0.4788
vn -0.5737 -0.7050 -0.4169
vn -0.6591 0.5799 -0.4788
vn -0.2517 0.5799 -0.7748
vn -0.2192 -0.7050 -0.6744
vn 0.2517 0.5799 -0.7748
vn 0.2192 -0.7050 -0.6744
vn 0.8147 0.5799 0.0000
vn -0.8147 0.5799 0.0001
vn 0.6591 0.5799 -0.4788
vn 0.5738 -0.7050 -0.4168
vn 0.5025 0.7837 -0.3651
vn -0.6592 0.5799 0.4788
vn -0.2517 0.5799 0.7749
vn 0.1919 0.7837 -0.5908
vn -0.1919 0.7837 0.5908
vn 0.2517 0.5799 -0.7749
vn -0.2517 0.5799 -0.7749
vn 0.1919 0.7837 0.5908
vn -0.5025 0.7837 0.3651
vn 0.6592 0.5799 -0.4788
vn 0.2517 0.5799 0.7749
vn -0.1919 0.7837 -0.5908
vn -0.6592 0.5799 -0.4788
vn 0.5025 0.7837 0.3651
vn 0.6212 0.7837 -0.0000
vn 0.6592 0.5799 0.4788
vn -0.5025 0.7837 -0.3651
vn -0.6212 0.7837 0.0000
vn 0.2365 0.6437 -0.7278
vn -0.2365 0.6437 -0.7278
vn 0.2365 0.6437 0.7278
vn -0.6191 0.6437 0.4498
vn -0.2365 0.6437 0.7278
vn 0.7653 0.6437 0.0000
vn -0.7653 0.6437 -0.0000
vn -0.6211 0.7837 0.0000
vn -0.7652 0.6437 0.0000
vn 0.6211 0.7837 -0.0002
vn 0.7652 0.6437 -0.0002
vn -0.5025 0.7837 0.3650
vn 0.9996 0.0260 0.0060
vn 0.9996 0.0260 0.0061
vn 0.0075 0.0051 -1.0000
vn 0.0075 0.0050 -1.0000
vn 0.0075 0.0049 -1.0000
vn 0.0076 0.0050 -1.0000
vn -0.9997 -0.0257 -0.0060
vn -0.9997 -0.0257 -0.0061
vn -0.0075 -0.0051 1.0000
vn -0.0076 -0.0050 1.0000
vn -0.0075 -0.0049 1.0000
s 1
f 6/1/1 4/2/2 8/3/3
f 6/1/1 8/3/3 13/4/4
f 4/2/2 5/5/5 12/6/6
f 4/2/2 12/6/6 8/3/3
f 1/7/7 3/8/8 10/9/9
f 1/7/7 10/9/9 7/10/10
f 15/11/11 9/12/12 4/2/2
f 15/11/11 4/2/2 6/1/1
f 8/3/3 12/6/6 3/8/8
f 8/3/3 3/8/8 1/7/7
f 13/4/4 8/3/3 1/7/7
f 13/4/4 1/7/7 2/13/13
f 9/12/12 14/14/14 5/5/5
f 9/12/12 5/5/5 4/2/2
f 2/13/13 1/7/7 7/10/10
f 2/13/13 7/10/10 11/15/15
f 27/16/16 26/17/17 19/18/18
f 27/16/16 19/18/18 23/19/19
f 30/20/20 28/21/21 21/22/22
f 30/20/20 21/22/22 24/23/23
f 29/24/24 30/20/20 24/23/23
f 29/24/24 24/23/23 20/25/25
f 25/26/26 27/16/16 23/19/19
f 25/26/26 23/19/19 18/27/27
f 16/28/28 22/29/29 27/16/16
f 16/28/28 27/16/16 25/26/26
f 22/29/29 17/30/30 26/17/17
f 22/29/29 26/17/17 27/16/16
f 18/27/27 23/19/19 30/20/20
f 18/27/27 30/20/20 29/24/24
f 23/19/19 19/18/18 28/21/21
f 23/19/19 28/21/21 30/20/20
f 42/31/31 41/32/32 34/33/33
f 42/31/31 34/33/33 38/34/34
f 45/35/35 43/36/36 36/37/37
f 45/35/35 36/37/37 39/38/38
f 44/39/39 45/35/35 39/38/38
f 44/39/39 39/38/38 35/40/40
f 40/41/41 42/31/31 38/34/34
f 40/41/41 38/34/34 33/42/42
f 31/43/43 37/44/44 42/31/31
f 31/43/43 42/31/31 40/41/41
f 37/44/44 32/45/45 41/32/32
f 37/44/44 41/32/32 42/31/31
f 33/42/42 38/34/34 45/35/35
f 33/42/42 45/35/35 44/39/39
f 38/34/34 34/33/33 43/36/36
f 38/34/34 43/36/36 45/35/35
f 57/46/46 56/47/47 49/48/48
f 57/46/46 49/48/48 53/49/49
f 60/50/50 58/51/51 51/52/52
f 60/50/50 51/52/52 54/53/53
f 59/54/54 60/50/50 54/53/53
f 59/54/54 54/53/53 50/55/55
f 55/56/56 57/46/46 53/49/49
f 55/56/56 53/49/49 48/57/57
f 46/58/58 52/59/59 57/46/46
f 46/58/58 57/46/46 55/56/56
f 52/59/59 47/60/60 56/47/47
f 52/59/59 56/47/47 57/46/46
f 48/57/57 53/49/49 60/50/50
f 48/57/57 60/50/50 59/54/54
f 53/49/49 49/48/48 58/51/51
f 53/49/49 58/51/51 60/50/50
f 72/61/61 71/62/62 64/63/63
f 72/61/61 64/63/63 68/64/64
f 75/65/65 73/66/66 66/67/67
f 75/65/65 66/67/67 69/68/68
f 74/69/69 75/65/65 69/68/68
f 74/69/69 69/68/68 65/70/70
f 70/71/71 72/61/61 68/64/64
f 70/71/71 68/64/64 63/72/72
f 61/73/73 67/74/74 72/61/61
f 61/73/73 72/61/61 70/71/71
f 67/74/74 62/75/75 71/62/62
f 67/74/74 71/62/62 72/61/61
f 63/72/72 68/64/64 75/65/65
f 63/72/72 75/65/65 74/69/69
f 68/64/64 64/63/63 73/66/66
f 68/64/64 73/66/66 75/65/65
s off
f 92/76/76 81/77/76 86/78/76
f 92/76/76 86/78/76 97/79/76
s 1
f 186/80/77 88/81/78 77/82/78
f 186/80/77 77/82/78 184/83/79
s off
f 78/84/80 89/85/80 95/86/80
f 78/84/81 95/86/81 84/87/81
s 1
f 183/88/82 76/89/83 82/90/84
f 183/88/82 82/90/84 195/91/85
f 197/92/86 83/93/87 94/94/88
f 197/92/86 94/94/88 191/95/89
f 192/96/90 96/97/91 90/98/91
f 192/96/90 90/98/91 188/99/90
f 114/100/92 116/101/93 105/102/94
f 114/100/92 105/102/94 101/103/95
f 103/104/96 107/105/97 120/106/98
f 103/104/96 120/106/98 109/107/99
f 109/107/99 120/106/98 118/108/100
f 109/107/99 118/108/100 112/109/101
f 112/109/101 118/108/100 116/101/93
f 112/109/101 116/101/93 114/100/92
f 123/110/102 178/111/103 176/112/104
f 123/110/102 176/112/104 128/113/105
f 129/114/106 164/115/107 178/111/103
f 129/114/106 178/111/103 123/110/102
f 136/116/108 170/117/109 180/118/110
f 136/116/108 180/118/110 126/119/111
f 121/120/112 174/121/113 172/122/114
f 121/120/112 172/122/114 133/123/115
f 113/124/116 141/125/117 156/126/118
f 113/124/116 156/126/118 111/127/101
f 104/128/119 151/129/120 143/130/121
f 104/128/119 143/130/121 100/131/122
f 100/131/122 143/130/121 141/125/117
f 100/131/122 141/125/117 113/124/116
f 115/132/123 158/133/124 151/129/120
f 115/132/123 151/129/120 104/128/119
f 108/134/125 153/135/126 147/136/127
f 108/134/125 147/136/127 102/137/128
f 102/137/128 147/136/127 145/138/129
f 102/137/128 145/138/129 106/139/130
f 117/140/100 160/141/131 158/133/124
f 117/140/100 158/133/124 115/132/123
f 110/142/101 155/143/132 153/135/126
f 110/142/101 153/135/126 108/134/125
f 106/139/130 145/138/129 149/144/133
f 106/139/130 149/144/133 119/145/134
f 119/145/134 149/144/133 160/141/131
f 119/145/134 160/141/131 117/140/100
f 134/146/135 142/147/136 144/148/137
f 134/146/135 144/148/137 122/149/138
f 127/150/139 146/151/140 148/152/141
f 127/150/139 148/152/141 124/153/142
f 139/154/143 150/155/144 146/151/140
f 139/154/143 146/151/140 127/150/139
f 122/149/138 144/148/137 152/156/145
f 122/149/138 152/156/145 125/157/146
f 124/153/142 148/152/141 154/158/147
f 124/153/142 154/158/147 130/159/148
f 130/159/148 154/158/147 157/160/118
f 130/159/148 157/160/118 132/161/149
f 132/161/149 157/160/118 142/147/136
f 132/161/149 142/147/136 134/146/135
f 125/157/146 152/156/145 159/162/150
f 125/157/146 159/162/150 135/163/151
f 135/163/151 159/162/150 161/164/131
f 135/163/151 161/164/131 137/165/152
f 137/165/152 161/164/131 150/155/144
f 137/165/152 150/155/144 139/154/143
f 173/166/114 175/167/153 181/168/154
f 173/166/114 181/168/154 171/169/109
f 179/170/155 165/171/107 163/172/156
f 179/170/155 163/172/156 177/173/157
f 165/171/107 169/174/158 167/175/159
f 165/171/107 167/175/159 163/172/156
f 169/174/158 173/166/114 171/169/109
f 169/174/158 171/169/109 167/175/159
f 138/176/160 166/177/161 170/117/109
f 138/176/160 170/117/109 136/116/108
f 131/178/162 168/179/163 164/115/107
f 131/178/162 164/115/107 129/114/106
f 128/113/105 176/112/104 162/180/156
f 128/113/105 162/180/156 140/181/164
f 140/181/164 162/180/156 166/177/161
f 140/181/164 166/177/161 138/176/160
f 133/123/115 172/122/114 168/179/163
f 133/123/115 168/179/163 131/178/162
f 126/119/111 180/118/110 174/121/113
f 126/119/111 174/121/113 121/120/112
f 99/182/165 193/183/166 189/184/166
f 99/182/165 189/184/166 93/185/165
f 87/186/167 196/187/168 190/188/169
f 87/186/167 190/188/169 98/189/170
f 79/190/171 182/191/172 194/192/172
f 79/190/171 194/192/172 85/193/171
f 91/194/173 187/195/174 185/196/175
f 91/194/173 185/196/175 80/197/174
