{
    "asset" : {
        "generator" : "Khronos glTF Blender I/O v1.6.16",
        "version" : "2.0"
    },
    "scene" : 0,
    "scenes" : [
        {
            "name" : "Scene",
            "nodes" : [
                0,
                1
            ]
        }
    ],
    "nodes" : [
        {
            "mesh" : 0,
            "name" : "LeftColumnWood.002"
        },
        {
            "mesh" : 1,
            "name" : "Plane.002",
            "rotation" : [
                0,
                0.22069743275642395,
                0,
                0.975342333316803
            ]
        }
    ],
    "materials" : [
        {
            "doubleSided" : true,
            "name" : "interiorTexture",
            "pbrMetallicRoughness" : {
                "baseColorTexture" : {
                    "index" : 0
                },
                "metallicFactor" : 0,
                "roughnessFactor" : 0
            }
        },
        {
            "doubleSided" : true,
            "name" : "interiorTexture.001",
            "pbrMetallicRoughness" : {
                "baseColorTexture" : {
                    "index" : 1
                },
                "metallicFactor" : 0,
                "roughnessFactor" : 0
            }
        },
        {
            "doubleSided" : true,
            "name" : "Material.003",
            "pbrMetallicRoughness" : {
                "baseColorFactor" : [
                    0.9113936424255371,
                    0.6454094648361206,
                    0.4429170489311218,
                    1
                ],
                "metallicFactor" : 0
            }
        }
    ],
    "meshes" : [
        {
            "name" : "Cube.006",
            "primitives" : [
                {
                    "attributes" : {
                        "POSITION" : 0,
                        "NORMAL" : 1,
                        "TEXCOORD_0" : 2
                    },
                    "indices" : 3,
                    "material" : 0
                },
                {
                    "attributes" : {
                        "POSITION" : 4,
                        "NORMAL" : 5,
                        "TEXCOORD_0" : 6
                    },
                    "indices" : 7,
                    "material" : 0
                },
                {
                    "attributes" : {
                        "POSITION" : 8,
                        "NORMAL" : 9,
                        "TEXCOORD_0" : 10
                    },
                    "indices" : 11,
                    "material" : 1
                }
            ]
        },
        {
            "name" : "Plane.001",
            "primitives" : [
                {
                    "attributes" : {
                        "POSITION" : 12,
                        "NORMAL" : 13,
                        "TEXCOORD_0" : 14
                    },
                    "indices" : 15,
                    "material" : 2
                }
            ]
        }
    ],
    "textures" : [
        {
            "sampler" : 0,
            "source" : 0
        },
        {
            "sampler" : 0,
            "source" : 0
        }
    ],
    "images" : [
        {
            "mimeType" : "image/png",
            "name" : "interiorTextureBaked",
            "uri" : "interiorTextureBaked.png"
        }
    ],
    "accessors" : [
        {
            "bufferView" : 0,
            "componentType" : 5126,
            "count" : 4433,
            "max" : [
                7.649999618530273,
                3.515000104904175,
                6.300000190734863
            ],
            "min" : [
                -10.300000190734863,
                -0.20000001788139343,
                -6.300000190734863
            ],
            "type" : "VEC3"
        },
        {
            "bufferView" : 1,
            "componentType" : 5126,
            "count" : 4433,
            "type" : "VEC3"
        },
        {
            "bufferView" : 2,
            "componentType" : 5126,
            "count" : 4433,
            "type" : "VEC2"
        },
        {
            "bufferView" : 3,
            "componentType" : 5123,
            "count" : 7554,
            "type" : "SCALAR"
        },
        {
            "bufferView" : 4,
            "componentType" : 5126,
            "count" : 84,
            "max" : [
                6.099999904632568,
                2.6000008583068848,
                1.2500001192092896
            ],
            "min" : [
                5.965000152587891,
                1.1920928955078125e-07,
                -1.2500001192092896
            ],
            "type" : "VEC3"
        },
        {
            "bufferView" : 5,
            "componentType" : 5126,
            "count" : 84,
            "type" : "VEC3"
        },
        {
            "bufferView" : 6,
            "componentType" : 5126,
            "count" : 84,
            "type" : "VEC2"
        },
        {
            "bufferView" : 7,
            "componentType" : 5123,
            "count" : 126,
            "type" : "SCALAR"
        },
        {
            "bufferView" : 8,
            "componentType" : 5126,
            "count" : 50,
            "max" : [
                6.25,
                3.500000238418579,
                5.899999618530273
            ],
            "min" : [
                5.849999904632568,
                0.5500001907348633,
                -5.90000057220459
            ],
            "type" : "VEC3"
        },
        {
            "bufferView" : 9,
            "componentType" : 5126,
            "count" : 50,
            "type" : "VEC3"
        },
        {
            "bufferView" : 10,
            "componentType" : 5126,
            "count" : 50,
            "type" : "VEC2"
        },
        {
            "bufferView" : 11,
            "componentType" : 5123,
            "count" : 96,
            "type" : "SCALAR"
        },
        {
            "bufferView" : 12,
            "componentType" : 5126,
            "count" : 8,
            "max" : [
                85.7000732421875,
                1.9800114631652832,
                653.35546875
            ],
            "min" : [
                -175.707763671875,
                -8.750823974609375,
                -381.35546875
            ],
            "type" : "VEC3"
        },
        {
            "bufferView" : 13,
            "componentType" : 5126,
            "count" : 8,
            "type" : "VEC3"
        },
        {
            "bufferView" : 14,
            "componentType" : 5126,
            "count" : 8,
            "type" : "VEC2"
        },
        {
            "bufferView" : 15,
            "componentType" : 5123,
            "count" : 12,
            "type" : "SCALAR"
        }
    ],
    "bufferViews" : [
        {
            "buffer" : 0,
            "byteLength" : 53196,
            "byteOffset" : 0
        },
        {
            "buffer" : 0,
            "byteLength" : 53196,
            "byteOffset" : 53196
        },
        {
            "buffer" : 0,
            "byteLength" : 35464,
            "byteOffset" : 106392
        },
        {
            "buffer" : 0,
            "byteLength" : 15108,
            "byteOffset" : 141856
        },
        {
            "buffer" : 0,
            "byteLength" : 1008,
            "byteOffset" : 156964
        },
        {
            "buffer" : 0,
            "byteLength" : 1008,
            "byteOffset" : 157972
        },
        {
            "buffer" : 0,
            "byteLength" : 672,
            "byteOffset" : 158980
        },
        {
            "buffer" : 0,
            "byteLength" : 252,
            "byteOffset" : 159652
        },
        {
            "buffer" : 0,
            "byteLength" : 600,
            "byteOffset" : 159904
        },
        {
            "buffer" : 0,
            "byteLength" : 600,
            "byteOffset" : 160504
        },
        {
            "buffer" : 0,
            "byteLength" : 400,
            "byteOffset" : 161104
        },
        {
            "buffer" : 0,
            "byteLength" : 192,
            "byteOffset" : 161504
        },
        {
            "buffer" : 0,
            "byteLength" : 96,
            "byteOffset" : 161696
        },
        {
            "buffer" : 0,
            "byteLength" : 96,
            "byteOffset" : 161792
        },
        {
            "buffer" : 0,
            "byteLength" : 64,
            "byteOffset" : 161888
        },
        {
            "buffer" : 0,
            "byteLength" : 24,
            "byteOffset" : 161952
        }
    ],
    "samplers" : [
        {
            "magFilter" : 9729,
            "minFilter" : 9987
        }
    ],
    "buffers" : [
        {
            "byteLength" : 161976,
            "uri" : "interiorJoined.bin"
        }
    ]
}
