{
    "asset" : {
        "generator" : "Khronos glTF Blender I/O v1.6.16",
        "version" : "2.0"
    },
    "scene" : 0,
    "scenes" : [
        {
            "name" : "Scene",
            "nodes" : [
                0,
                1,
                2,
                3
            ]
        }
    ],
    "nodes" : [
        {
            "mesh" : 0,
            "name" : "LeftColumnWood.002"
        },
        {
            "mesh" : 1,
            "name" : "Plane.006"
        },
        {
            "mesh" : 2,
            "name" : "Windowframes"
        },
        {
            "mesh" : 3,
            "name" : "Ceiling"
        }
    ],
    "materials" : [
        {
            "doubleSided" : true,
            "name" : "interiorTexture",
            "pbrMetallicRoughness" : {
                "baseColorTexture" : {
                    "index" : 0
                },
                "metallicFactor" : 0,
                "roughnessFactor" : 0
            }
        },
        {
            "doubleSided" : true,
            "name" : "StainlessSteel.001",
            "pbrMetallicRoughness" : {
                "baseColorFactor" : [
                    0.5,
                    0.5,
                    0.5,
                    1
                ],
                "roughnessFactor" : 0.2990867495536804
            }
        }
    ],
    "meshes" : [
        {
            "name" : "Cube.006",
            "primitives" : [
                {
                    "attributes" : {
                        "POSITION" : 0,
                        "NORMAL" : 1,
                        "TEXCOORD_0" : 2
                    },
                    "indices" : 3,
                    "material" : 0
                }
            ]
        },
        {
            "name" : "Plane.006",
            "primitives" : [
                {
                    "attributes" : {
                        "POSITION" : 4,
                        "NORMAL" : 5,
                        "TEXCOORD_0" : 6
                    },
                    "indices" : 7,
                    "material" : 0
                }
            ]
        },
        {
            "name" : "Plane.008",
            "primitives" : [
                {
                    "attributes" : {
                        "POSITION" : 8,
                        "NORMAL" : 9,
                        "TEXCOORD_0" : 10
                    },
                    "indices" : 11,
                    "material" : 0
                },
                {
                    "attributes" : {
                        "POSITION" : 12,
                        "NORMAL" : 13,
                        "TEXCOORD_0" : 14
                    },
                    "indices" : 15,
                    "material" : 0
                },
                {
                    "attributes" : {
                        "POSITION" : 16,
                        "NORMAL" : 17,
                        "TEXCOORD_0" : 18
                    },
                    "indices" : 19,
                    "material" : 1
                }
            ]
        },
        {
            "name" : "Cylinder",
            "primitives" : [
                {
                    "attributes" : {
                        "POSITION" : 20,
                        "NORMAL" : 21,
                        "TEXCOORD_0" : 22
                    },
                    "indices" : 23,
                    "material" : 0
                }
            ]
        }
    ],
    "textures" : [
        {
            "sampler" : 0,
            "source" : 0
        }
    ],
    "images" : [
        {
            "mimeType" : "image/png",
            "name" : "interiorTexture",
            "uri" : "interiorTexture.png"
        }
    ],
    "accessors" : [
        {
            "bufferView" : 0,
            "componentType" : 5126,
            "count" : 1968,
            "max" : [
                6.300000190734863,
                3.500007152557373,
                6.300000190734863
            ],
            "min" : [
                -10.300000190734863,
                -2.980232238769531e-07,
                -6.300000190734863
            ],
            "type" : "VEC3"
        },
        {
            "bufferView" : 1,
            "componentType" : 5126,
            "count" : 1968,
            "type" : "VEC3"
        },
        {
            "bufferView" : 2,
            "componentType" : 5126,
            "count" : 1968,
            "type" : "VEC2"
        },
        {
            "bufferView" : 3,
            "componentType" : 5123,
            "count" : 2952,
            "type" : "SCALAR"
        },
        {
            "bufferView" : 4,
            "componentType" : 5126,
            "count" : 8,
            "max" : [
                6,
                0,
                6
            ],
            "min" : [
                -10,
                0,
                -6
            ],
            "type" : "VEC3"
        },
        {
            "bufferView" : 5,
            "componentType" : 5126,
            "count" : 8,
            "type" : "VEC3"
        },
        {
            "bufferView" : 6,
            "componentType" : 5126,
            "count" : 8,
            "type" : "VEC2"
        },
        {
            "bufferView" : 7,
            "componentType" : 5123,
            "count" : 18,
            "type" : "SCALAR"
        },
        {
            "bufferView" : 8,
            "componentType" : 5126,
            "count" : 468,
            "max" : [
                7.500000953674316,
                3.4000015258789062,
                5.750001430511475
            ],
            "min" : [
                5.899999141693115,
                -0.20000001788139343,
                -5.750001430511475
            ],
            "type" : "VEC3"
        },
        {
            "bufferView" : 9,
            "componentType" : 5126,
            "count" : 468,
            "type" : "VEC3"
        },
        {
            "bufferView" : 10,
            "componentType" : 5126,
            "count" : 468,
            "type" : "VEC2"
        },
        {
            "bufferView" : 11,
            "componentType" : 5123,
            "count" : 750,
            "type" : "SCALAR"
        },
        {
            "bufferView" : 12,
            "componentType" : 5126,
            "count" : 901,
            "max" : [
                7.649999618530273,
                3.5000011920928955,
                6.25
            ],
            "min" : [
                5.749999523162842,
                -0.1999998390674591,
                -6.250000953674316
            ],
            "type" : "VEC3"
        },
        {
            "bufferView" : 13,
            "componentType" : 5126,
            "count" : 901,
            "type" : "VEC3"
        },
        {
            "bufferView" : 14,
            "componentType" : 5126,
            "count" : 901,
            "type" : "VEC2"
        },
        {
            "bufferView" : 15,
            "componentType" : 5123,
            "count" : 1938,
            "type" : "SCALAR"
        },
        {
            "bufferView" : 16,
            "componentType" : 5126,
            "count" : 84,
            "max" : [
                6.099999904632568,
                2.6000003814697266,
                1.2500001192092896
            ],
            "min" : [
                5.965000152587891,
                1.1920928955078125e-07,
                -1.2500001192092896
            ],
            "type" : "VEC3"
        },
        {
            "bufferView" : 17,
            "componentType" : 5126,
            "count" : 84,
            "type" : "VEC3"
        },
        {
            "bufferView" : 18,
            "componentType" : 5126,
            "count" : 84,
            "type" : "VEC2"
        },
        {
            "bufferView" : 19,
            "componentType" : 5123,
            "count" : 126,
            "type" : "SCALAR"
        },
        {
            "bufferView" : 20,
            "componentType" : 5126,
            "count" : 1432,
            "max" : [
                6,
                3.515000104904175,
                6
            ],
            "min" : [
                -10,
                3.484999895095825,
                -5.999999046325684
            ],
            "type" : "VEC3"
        },
        {
            "bufferView" : 21,
            "componentType" : 5126,
            "count" : 1432,
            "type" : "VEC3"
        },
        {
            "bufferView" : 22,
            "componentType" : 5126,
            "count" : 1432,
            "type" : "VEC2"
        },
        {
            "bufferView" : 23,
            "componentType" : 5123,
            "count" : 2478,
            "type" : "SCALAR"
        }
    ],
    "bufferViews" : [
        {
            "buffer" : 0,
            "byteLength" : 23616,
            "byteOffset" : 0
        },
        {
            "buffer" : 0,
            "byteLength" : 23616,
            "byteOffset" : 23616
        },
        {
            "buffer" : 0,
            "byteLength" : 15744,
            "byteOffset" : 47232
        },
        {
            "buffer" : 0,
            "byteLength" : 5904,
            "byteOffset" : 62976
        },
        {
            "buffer" : 0,
            "byteLength" : 96,
            "byteOffset" : 68880
        },
        {
            "buffer" : 0,
            "byteLength" : 96,
            "byteOffset" : 68976
        },
        {
            "buffer" : 0,
            "byteLength" : 64,
            "byteOffset" : 69072
        },
        {
            "buffer" : 0,
            "byteLength" : 36,
            "byteOffset" : 69136
        },
        {
            "buffer" : 0,
            "byteLength" : 5616,
            "byteOffset" : 69172
        },
        {
            "buffer" : 0,
            "byteLength" : 5616,
            "byteOffset" : 74788
        },
        {
            "buffer" : 0,
            "byteLength" : 3744,
            "byteOffset" : 80404
        },
        {
            "buffer" : 0,
            "byteLength" : 1500,
            "byteOffset" : 84148
        },
        {
            "buffer" : 0,
            "byteLength" : 10812,
            "byteOffset" : 85648
        },
        {
            "buffer" : 0,
            "byteLength" : 10812,
            "byteOffset" : 96460
        },
        {
            "buffer" : 0,
            "byteLength" : 7208,
            "byteOffset" : 107272
        },
        {
            "buffer" : 0,
            "byteLength" : 3876,
            "byteOffset" : 114480
        },
        {
            "buffer" : 0,
            "byteLength" : 1008,
            "byteOffset" : 118356
        },
        {
            "buffer" : 0,
            "byteLength" : 1008,
            "byteOffset" : 119364
        },
        {
            "buffer" : 0,
            "byteLength" : 672,
            "byteOffset" : 120372
        },
        {
            "buffer" : 0,
            "byteLength" : 252,
            "byteOffset" : 121044
        },
        {
            "buffer" : 0,
            "byteLength" : 17184,
            "byteOffset" : 121296
        },
        {
            "buffer" : 0,
            "byteLength" : 17184,
            "byteOffset" : 138480
        },
        {
            "buffer" : 0,
            "byteLength" : 11456,
            "byteOffset" : 155664
        },
        {
            "buffer" : 0,
            "byteLength" : 4956,
            "byteOffset" : 167120
        }
    ],
    "samplers" : [
        {
            "magFilter" : 9729,
            "minFilter" : 9987
        }
    ],
    "buffers" : [
        {
            "byteLength" : 172076,
            "uri" : "interiorJoined.bin"
        }
    ]
}
