{
    "asset" : {
        "generator" : "Khronos glTF Blender I/O v1.6.16",
        "version" : "2.0"
    },
    "scene" : 0,
    "scenes" : [
        {
            "name" : "Scene",
            "nodes" : [
                0,
                1,
                2,
                3,
                4
            ]
        }
    ],
    "nodes" : [
        {
            "mesh" : 0,
            "name" : "Cube",
            "scale" : [
                0.25,
                0.25,
                0.25
            ]
        },
        {
            "mesh" : 1,
            "name" : "Cube.012",
            "translation" : [
                1,
                1.25,
                0.8000000715255737
            ]
        },
        {
            "mesh" : 2,
            "name" : "Cube.003",
            "translation" : [
                1,
                2.25,
                0.8000000715255737
            ]
        },
        {
            "mesh" : 3,
            "name" : "Cube.006",
            "translation" : [
                1,
                3.25,
                0.8000000715255737
            ]
        },
        {
            "mesh" : 4,
            "name" : "Cube.009",
            "translation" : [
                1,
                4.25,
                0.8000000715255737
            ]
        }
    ],
    "materials" : [
        {
            "doubleSided" : true,
            "name" : "Material",
            "pbrMetallicRoughness" : {
                "baseColorTexture" : {
                    "index" : 0
                },
                "metallicFactor" : 0,
                "roughnessFactor" : 0.4000000059604645
            }
        },
        {
            "doubleSided" : true,
            "name" : "Material.002",
            "pbrMetallicRoughness" : {
                "baseColorTexture" : {
                    "index" : 1
                },
                "metallicFactor" : 0,
                "roughnessFactor" : 0.4000000059604645
            }
        }
    ],
    "meshes" : [
        {
            "name" : "Cube.014",
            "primitives" : [
                {
                    "attributes" : {
                        "POSITION" : 0,
                        "NORMAL" : 1,
                        "TEXCOORD_0" : 2
                    },
                    "indices" : 3,
                    "material" : 0
                }
            ]
        },
        {
            "name" : "Cube.013",
            "primitives" : [
                {
                    "attributes" : {
                        "POSITION" : 4,
                        "NORMAL" : 5,
                        "TEXCOORD_0" : 6
                    },
                    "indices" : 7,
                    "material" : 1
                }
            ]
        },
        {
            "name" : "Cube.015",
            "primitives" : [
                {
                    "attributes" : {
                        "POSITION" : 8,
                        "NORMAL" : 9,
                        "TEXCOORD_0" : 10
                    },
                    "indices" : 7,
                    "material" : 1
                }
            ]
        },
        {
            "name" : "Cube.016",
            "primitives" : [
                {
                    "attributes" : {
                        "POSITION" : 11,
                        "NORMAL" : 12,
                        "TEXCOORD_0" : 13
                    },
                    "indices" : 7,
                    "material" : 1
                }
            ]
        },
        {
            "name" : "Cube.017",
            "primitives" : [
                {
                    "attributes" : {
                        "POSITION" : 14,
                        "NORMAL" : 15,
                        "TEXCOORD_0" : 16
                    },
                    "indices" : 7,
                    "material" : 1
                }
            ]
        }
    ],
    "textures" : [
        {
            "sampler" : 0,
            "source" : 0
        },
        {
            "sampler" : 0,
            "source" : 0
        }
    ],
    "images" : [
        {
            "mimeType" : "image/png",
            "name" : "ovenTexture",
            "uri" : "ovenTexture.png"
        }
    ],
    "accessors" : [
        {
            "bufferView" : 0,
            "componentType" : 5126,
            "count" : 3940,
            "max" : [
                5.471554756164551,
                20,
                4.199999809265137
            ],
            "min" : [
                -4,
                0,
                -4.200000286102295
            ],
            "type" : "VEC3"
        },
        {
            "bufferView" : 1,
            "componentType" : 5126,
            "count" : 3940,
            "type" : "VEC3"
        },
        {
            "bufferView" : 2,
            "componentType" : 5126,
            "count" : 3940,
            "type" : "VEC2"
        },
        {
            "bufferView" : 3,
            "componentType" : 5123,
            "count" : 9480,
            "type" : "SCALAR"
        },
        {
            "bufferView" : 4,
            "componentType" : 5126,
            "count" : 342,
            "max" : [
                0.13000011444091797,
                0.1700000762939453,
                0.15000003576278687
            ],
            "min" : [
                -0.02999979257583618,
                -0.14999991655349731,
                -0.1499999761581421
            ],
            "type" : "VEC3"
        },
        {
            "bufferView" : 5,
            "componentType" : 5126,
            "count" : 342,
            "type" : "VEC3"
        },
        {
            "bufferView" : 6,
            "componentType" : 5126,
            "count" : 342,
            "type" : "VEC2"
        },
        {
            "bufferView" : 7,
            "componentType" : 5123,
            "count" : 696,
            "type" : "SCALAR"
        },
        {
            "bufferView" : 8,
            "componentType" : 5126,
            "count" : 342,
            "max" : [
                0.13000011444091797,
                0.1700000762939453,
                0.15000003576278687
            ],
            "min" : [
                -0.02999979257583618,
                -0.14999991655349731,
                -0.1499999761581421
            ],
            "type" : "VEC3"
        },
        {
            "bufferView" : 9,
            "componentType" : 5126,
            "count" : 342,
            "type" : "VEC3"
        },
        {
            "bufferView" : 10,
            "componentType" : 5126,
            "count" : 342,
            "type" : "VEC2"
        },
        {
            "bufferView" : 11,
            "componentType" : 5126,
            "count" : 342,
            "max" : [
                0.13000011444091797,
                0.1700000762939453,
                0.15000003576278687
            ],
            "min" : [
                -0.02999979257583618,
                -0.14999991655349731,
                -0.1499999761581421
            ],
            "type" : "VEC3"
        },
        {
            "bufferView" : 12,
            "componentType" : 5126,
            "count" : 342,
            "type" : "VEC3"
        },
        {
            "bufferView" : 13,
            "componentType" : 5126,
            "count" : 342,
            "type" : "VEC2"
        },
        {
            "bufferView" : 14,
            "componentType" : 5126,
            "count" : 342,
            "max" : [
                0.13000011444091797,
                0.1700000762939453,
                0.15000003576278687
            ],
            "min" : [
                -0.02999979257583618,
                -0.14999991655349731,
                -0.1499999761581421
            ],
            "type" : "VEC3"
        },
        {
            "bufferView" : 15,
            "componentType" : 5126,
            "count" : 342,
            "type" : "VEC3"
        },
        {
            "bufferView" : 16,
            "componentType" : 5126,
            "count" : 342,
            "type" : "VEC2"
        }
    ],
    "bufferViews" : [
        {
            "buffer" : 0,
            "byteLength" : 47280,
            "byteOffset" : 0
        },
        {
            "buffer" : 0,
            "byteLength" : 47280,
            "byteOffset" : 47280
        },
        {
            "buffer" : 0,
            "byteLength" : 31520,
            "byteOffset" : 94560
        },
        {
            "buffer" : 0,
            "byteLength" : 18960,
            "byteOffset" : 126080
        },
        {
            "buffer" : 0,
            "byteLength" : 4104,
            "byteOffset" : 145040
        },
        {
            "buffer" : 0,
            "byteLength" : 4104,
            "byteOffset" : 149144
        },
        {
            "buffer" : 0,
            "byteLength" : 2736,
            "byteOffset" : 153248
        },
        {
            "buffer" : 0,
            "byteLength" : 1392,
            "byteOffset" : 155984
        },
        {
            "buffer" : 0,
            "byteLength" : 4104,
            "byteOffset" : 157376
        },
        {
            "buffer" : 0,
            "byteLength" : 4104,
            "byteOffset" : 161480
        },
        {
            "buffer" : 0,
            "byteLength" : 2736,
            "byteOffset" : 165584
        },
        {
            "buffer" : 0,
            "byteLength" : 4104,
            "byteOffset" : 168320
        },
        {
            "buffer" : 0,
            "byteLength" : 4104,
            "byteOffset" : 172424
        },
        {
            "buffer" : 0,
            "byteLength" : 2736,
            "byteOffset" : 176528
        },
        {
            "buffer" : 0,
            "byteLength" : 4104,
            "byteOffset" : 179264
        },
        {
            "buffer" : 0,
            "byteLength" : 4104,
            "byteOffset" : 183368
        },
        {
            "buffer" : 0,
            "byteLength" : 2736,
            "byteOffset" : 187472
        }
    ],
    "samplers" : [
        {
            "magFilter" : 9729,
            "minFilter" : 9987
        }
    ],
    "buffers" : [
        {
            "byteLength" : 190208,
            "uri" : "ovenopen4.bin"
        }
    ]
}
